<svg id="圖層_1" data-name="圖層 1" xmlns="http://www.w3.org/2000/svg" viewBox="0 0 27.25 27.26"><defs><style>.cls-1{fill:#fff;}</style></defs><path class="cls-1" d="M22.69.55H19.28V4h3.41Zm3.41,0H24.4V5.66H17.58V.55H10.77V5.66H4V.55H2.25a1.7,1.7,0,0,0-1.7,1.7V26.1a1.7,1.7,0,0,0,1.7,1.7H26.1a1.7,1.7,0,0,0,1.7-1.7V2.25A1.7,1.7,0,0,0,26.1.55ZM24.4,24.4H4V9.06H24.4ZM9.06.55H5.66V4H9.07Zm6.82,11.92H12.47v3.41h3.41Zm5.11,0H17.58v3.41H21ZM10.77,17.58H7.36V21h3.41Zm0-5.11H7.36v3.41h3.41Zm5.11,5.11H12.47V21h3.41Zm5.11,0H17.58V21H21Z" transform="translate(-0.55 -0.55)"/></svg>