<svg id="圖層_1" data-name="圖層 1" xmlns="http://www.w3.org/2000/svg" viewBox="0 0 27.48 27.44"><defs><style>.cls-1{fill:#fff;}</style></defs><path class="cls-1" d="M15.85,17a4.25,4.25,0,0,1,.76,2.41,4.14,4.14,0,0,1-1.23,2.95h0L11.5,26.22a4.19,4.19,0,0,1-5.92,0L1.23,21.88a4.18,4.18,0,0,1,0-5.91h0l3.89-3.9h0a4.18,4.18,0,0,1,5.38-.47L7.58,14.51h0l-3.9,3.91a.67.67,0,0,0-.21.5.69.69,0,0,0,.21.51L8,23.77a.7.7,0,0,0,.51.2.74.74,0,0,0,.51-.2l3.9-3.91h0ZM16,9,9,16a1.74,1.74,0,1,0,2.47,2.46h0l6.94-6.94a1.74,1.74,0,0,0-2.29-2.62L16,9Zm5.92-7.81a4.19,4.19,0,0,0-5.92,0l-3.9,3.91h0a4.19,4.19,0,0,0-.46,5.36l6.81-6.81a.75.75,0,0,1,.51-.21.69.69,0,0,1,.51.21L23.76,8a.69.69,0,0,1,.21.51.75.75,0,0,1-.21.51l-3.9,3.9h0L17,15.84a4.15,4.15,0,0,0,2.41.76,4.22,4.22,0,0,0,3-1.22h0l3.89-3.9a4.18,4.18,0,0,0,0-5.91h0Z" transform="translate(0 0)"/></svg>