<?xml version="1.0" encoding="utf-8"?>
<!-- Generator: Adobe Illustrator 16.0.0, SVG Export Plug-In . SVG Version: 6.00 Build 0)  -->
<!DOCTYPE svg PUBLIC "-//W3C//DTD SVG 1.1//EN" "http://www.w3.org/Graphics/SVG/1.1/DTD/svg11.dtd">
<svg version="1.1" id="圖層_1" xmlns="http://www.w3.org/2000/svg" xmlns:xlink="http://www.w3.org/1999/xlink" x="0px" y="0px"
	 width="28.35px" height="28.35px" viewBox="0 0 28.35 28.35" enable-background="new 0 0 28.35 28.35" xml:space="preserve">
<linearGradient id="SVGID_1_" gradientUnits="userSpaceOnUse" x1="14.2202" y1="27.8496" x2="14.2202" y2="0.4102">
	<stop  offset="0" style="stop-color:#040000"/>
	<stop  offset="1" style="stop-color:#575858"/>
</linearGradient>
<path fill="url(#SVGID_1_)" d="M16.346,17.358c0.504,0.719,0.759,1.562,0.759,2.408c0,1.073-0.407,2.144-1.224,2.959l0,0l-3.9,3.903
	c-0.815,0.812-1.889,1.221-2.962,1.221c-1.07,0-2.143-0.409-2.958-1.221l-4.334-4.338C0.909,21.476,0.5,20.405,0.5,19.331
	c0-1.07,0.408-2.144,1.225-2.959l3.9-3.902l0,0c0.814-0.817,1.888-1.225,2.962-1.225c0.843,0,1.687,0.258,2.406,0.764l-2.915,2.915
	l0,0l-3.902,3.902c-0.14,0.138-0.208,0.319-0.208,0.506c0,0.189,0.068,0.371,0.208,0.506l4.334,4.338
	c0.138,0.14,0.323,0.207,0.507,0.207c0.187,0,0.371-0.067,0.509-0.207l3.902-3.903l0,0L16.346,17.358L16.346,17.358z M16.464,9.438
	l-6.937,6.935c-0.677,0.675-0.677,1.775,0,2.453c0.678,0.677,1.774,0.677,2.454,0l6.935-6.934c0.677-0.677,0.677-1.777,0-2.454
	C18.238,8.761,17.14,8.761,16.464,9.438L16.464,9.438z M22.383,1.635c-0.817-0.817-1.888-1.225-2.961-1.225
	c-1.072,0-2.144,0.408-2.958,1.225l-3.903,3.901l0,0c-0.815,0.813-1.221,1.886-1.221,2.96c0,0.847,0.251,1.686,0.76,2.408
	l6.815-6.816c0.137-0.141,0.322-0.212,0.507-0.212c0.186,0,0.371,0.071,0.51,0.212l4.333,4.332c0.14,0.136,0.208,0.321,0.208,0.51
	c0,0.182-0.068,0.367-0.208,0.507l-3.9,3.901l0,0l-2.915,2.915c0.719,0.504,1.562,0.76,2.408,0.76c1.073,0,2.143-0.409,2.959-1.225
	l0,0l3.897-3.898c0.816-0.816,1.226-1.89,1.226-2.96c0-1.073-0.409-2.147-1.226-2.959L22.383,1.635z"/>
</svg>
