<svg id="Layer_1" data-name="Layer 1" xmlns="http://www.w3.org/2000/svg" viewBox="0 0 49.25 49.25"><defs><style>.cls-1{fill:#fff;}</style></defs><path class="cls-1" d="M23.76,28a2,2,0,0,0,1.57-.72A4.07,4.07,0,0,0,26.09,24c-.3-2.29-1.93-4.19-3.64-4.24h-.06a2,2,0,0,0-1.56.72,4,4,0,0,0-.73,3.14c.3,2.29,2,4.26,3.63,4.31Z" transform="translate(-3.72 -5.16)"/><path class="cls-1" d="M25.62,34.85l-.52-.36a6,6,0,0,0-1.65-.25h-.07c-2.63,0-4.93,1.59-4.93,3.4,0,2,2,3.52,4.49,3.52,3.32,0,5-1.14,5-3.4a3,3,0,0,0-.07-.66C27.64,36.22,26.84,35.67,25.62,34.85Z" transform="translate(-3.72 -5.16)"/><path class="cls-1" d="M28.35,5.16A24.62,24.62,0,1,0,53,29.78,24.63,24.63,0,0,0,28.35,5.16Zm-2.24,38a11.54,11.54,0,0,1-3.16.43,14.49,14.49,0,0,1-3.54-.43,6.87,6.87,0,0,1-4.48-2.89,3.73,3.73,0,0,1-.48-1.82,4.68,4.68,0,0,1,.46-2c1.18-2.51,4.29-4.2,7.73-4.2h.1a3.05,3.05,0,0,1-.42-1.54,3.21,3.21,0,0,1,.1-.81,6.2,6.2,0,0,1-6.3-6.21c0-2.46,2-4.85,4.77-5.82a7.86,7.86,0,0,1,2.55-.44h7.71a.62.62,0,0,1,.58.42.61.61,0,0,1-.23.68l-1.72,1.25a.64.64,0,0,1-.36.11h-.61a6.05,6.05,0,0,1,1.26,3.85,5.71,5.71,0,0,1-2.41,4.5c-1.2.94-1.25,1.2-1.25,1.73a5.16,5.16,0,0,0,1.78,1.91,6,6,0,0,1,2.95,5.51C31.14,40,29.16,42.29,26.11,43.18ZM43.53,30a.6.6,0,0,1-.61.6H38.54v4.39a.6.6,0,0,1-.61.6H36.68a.6.6,0,0,1-.6-.6V30.55H31.69a.6.6,0,0,1-.6-.6V28.7a.6.6,0,0,1,.6-.61h4.39V23.71a.6.6,0,0,1,.6-.61h1.25a.61.61,0,0,1,.61.61v4.38h4.38a.61.61,0,0,1,.61.61V30Z" transform="translate(-3.72 -5.16)"/></svg>