<?xml version="1.0" encoding="utf-8"?>
<!-- Generator: Adobe Illustrator 16.0.0, SVG Export Plug-In . SVG Version: 6.00 Build 0)  -->
<!DOCTYPE svg PUBLIC "-//W3C//DTD SVG 1.1//EN" "http://www.w3.org/Graphics/SVG/1.1/DTD/svg11.dtd">
<svg version="1.1" id="圖層_1" xmlns="http://www.w3.org/2000/svg" xmlns:xlink="http://www.w3.org/1999/xlink" x="0px" y="0px"
	 width="28.35px" height="28.35px" viewBox="0 0 28.35 28.35" enable-background="new 0 0 28.35 28.35" xml:space="preserve">
<g id="Livello_1_1_">
</g>
<g>
	<g>
		<path d="M13.797,11.923h7.351c0.154,0,0.277-0.042,0.378-0.121c0.098-0.079,0.146-0.18,0.146-0.304V8.965
			c0-0.126-0.049-0.226-0.146-0.306c-0.101-0.078-0.224-0.117-0.378-0.117h-7.351c-0.154,0-0.281,0.039-0.377,0.117
			c-0.099,0.08-0.148,0.18-0.148,0.306v2.534c0,0.124,0.049,0.225,0.148,0.304C13.516,11.88,13.643,11.923,13.797,11.923z"/>
		<path d="M13.797,5.16h4.199c0.154,0,0.282-0.039,0.379-0.118c0.1-0.08,0.148-0.181,0.148-0.303V2.201
			c0-0.123-0.049-0.225-0.148-0.303c-0.097-0.078-0.224-0.117-0.379-0.117h-4.199c-0.154,0-0.278,0.038-0.377,0.117
			c-0.099,0.079-0.148,0.18-0.148,0.303v2.537c0,0.123,0.049,0.222,0.148,0.303S13.643,5.16,13.797,5.16z"/>
		<path d="M11.252,20.37h-3.15V2.201c0-0.123-0.049-0.225-0.147-0.303C7.856,1.821,7.731,1.781,7.578,1.781H4.427
			c-0.152,0-0.279,0.038-0.378,0.117c-0.097,0.079-0.147,0.18-0.147,0.303V20.37H0.75c-0.239,0-0.403,0.088-0.49,0.265
			c-0.088,0.169-0.049,0.322,0.113,0.464l5.251,4.225c0.12,0.077,0.247,0.119,0.377,0.119c0.141,0,0.269-0.04,0.377-0.119
			l5.234-4.213c0.109-0.105,0.165-0.212,0.165-0.317c0-0.122-0.05-0.226-0.147-0.305C11.53,20.41,11.406,20.37,11.252,20.37z"/>
		<path d="M27.825,22.182c-0.098-0.079-0.224-0.121-0.376-0.121H13.797c-0.154,0-0.278,0.042-0.377,0.121
			c-0.099,0.076-0.148,0.179-0.148,0.302v2.534c0,0.126,0.049,0.225,0.148,0.306c0.098,0.077,0.223,0.119,0.377,0.119h13.653
			c0.152,0,0.278-0.04,0.376-0.119c0.098-0.081,0.146-0.18,0.146-0.306v-2.534C27.972,22.361,27.923,22.258,27.825,22.182z"/>
		<path d="M13.797,18.683h10.501c0.151,0,0.276-0.04,0.377-0.122c0.1-0.076,0.148-0.18,0.148-0.302v-2.532
			c0-0.126-0.049-0.224-0.148-0.306c-0.098-0.079-0.225-0.119-0.377-0.119H13.797c-0.154,0-0.281,0.04-0.377,0.119
			c-0.099,0.082-0.148,0.18-0.148,0.306v2.532c0,0.122,0.049,0.226,0.148,0.302C13.516,18.643,13.643,18.683,13.797,18.683z"/>
	</g>
</g>
</svg>
