<svg id="圖層_1" data-name="圖層 1" xmlns="http://www.w3.org/2000/svg" viewBox="0 0 27.76 23.66"><defs><style>.cls-1{fill:#fff;}</style></defs><path class="cls-1" d="M13.8,11.92h7.35a.62.62,0,0,0,.38-.12.39.39,0,0,0,.14-.3V9a.4.4,0,0,0-.14-.31.62.62,0,0,0-.38-.12H13.8a.58.58,0,0,0-.38.12.37.37,0,0,0-.15.31V11.5a.37.37,0,0,0,.15.3A.58.58,0,0,0,13.8,11.92Z" transform="translate(-0.21 -1.78)"/><path class="cls-1" d="M13.8,5.16H18A.6.6,0,0,0,18.38,5a.36.36,0,0,0,.14-.3V2.2a.39.39,0,0,0-.14-.3A.6.6,0,0,0,18,1.78H13.8a.58.58,0,0,0-.38.12.37.37,0,0,0-.15.3V4.74a.37.37,0,0,0,.15.3A.58.58,0,0,0,13.8,5.16Z" transform="translate(-0.21 -1.78)"/><path class="cls-1" d="M11.25,20.37H8.1V2.2A.37.37,0,0,0,8,1.9a.55.55,0,0,0-.37-.12H4.43a.6.6,0,0,0-.38.12.37.37,0,0,0-.15.3V20.37H.75a.5.5,0,0,0-.49.27.35.35,0,0,0,.11.46l5.25,4.22a.68.68,0,0,0,.38.12.64.64,0,0,0,.38-.12l5.23-4.21a.45.45,0,0,0,.17-.32.37.37,0,0,0-.15-.3A.58.58,0,0,0,11.25,20.37Z" transform="translate(-0.21 -1.78)"/><path class="cls-1" d="M27.83,22.18a.6.6,0,0,0-.38-.12H13.8a.58.58,0,0,0-.38.12.37.37,0,0,0-.15.3V25a.37.37,0,0,0,.15.3.58.58,0,0,0,.38.12H27.45a.6.6,0,0,0,.38-.12A.39.39,0,0,0,28,25V22.48A.39.39,0,0,0,27.83,22.18Z" transform="translate(-0.21 -1.78)"/><path class="cls-1" d="M13.8,18.68H24.3a.62.62,0,0,0,.38-.12.35.35,0,0,0,.14-.3V15.73a.4.4,0,0,0-.14-.31.6.6,0,0,0-.38-.12H13.8a.58.58,0,0,0-.38.12.37.37,0,0,0-.15.31v2.53a.36.36,0,0,0,.15.3A.58.58,0,0,0,13.8,18.68Z" transform="translate(-0.21 -1.78)"/></svg>