<?xml version="1.0" encoding="utf-8"?>
<!-- Generator: Adobe Illustrator 16.0.0, SVG Export Plug-In . SVG Version: 6.00 Build 0)  -->
<!DOCTYPE svg PUBLIC "-//W3C//DTD SVG 1.1//EN" "http://www.w3.org/Graphics/SVG/1.1/DTD/svg11.dtd">
<svg version="1.1" id="圖層_1" xmlns="http://www.w3.org/2000/svg" xmlns:xlink="http://www.w3.org/1999/xlink" x="0px" y="0px"
	 width="28.35px" height="28.35px" viewBox="0 0 28.35 28.35" enable-background="new 0 0 28.35 28.35" xml:space="preserve">
<path fill="#FFFFFF" d="M21.319,3.6l3.433,3.433c0.267,0.266,0.4,0.615,0.4,0.966c0,0.354-0.135,0.707-0.4,0.973l-1.918,1.917
	l-5.37-5.372L19.379,3.6c0.269-0.266,0.618-0.401,0.971-0.401C20.699,3.198,21.051,3.334,21.319,3.6L21.319,3.6z M7.112,15.751
	l5.489,5.486l9.323-9.32l-0.889-0.889l-0.971-0.971l-1.772-1.772l-0.971-0.974l-0.889-0.886L7.112,15.751L7.112,15.751z
	 M3.24,24.235l0.766-2.105l2.217,2.217l-2.105,0.767l0,0c-0.146,0.052-0.309,0.055-0.466,0C3.294,24.98,3.11,24.588,3.24,24.235
	L3.24,24.235z M4.522,20.705l1.445-3.972c0.012-0.047,0.029-0.093,0.053-0.137l5.729,5.729c-0.028,0.016-0.057,0.026-0.086,0.039
	l-4.021,1.462L4.522,20.705z"/>
<g transform="translate(0 -1028.4)">
	<path fill="#BDC3C7" d="M5.082,1032.832c-1.435,0-2.598,1.169-2.598,2.598v18.187c0,1.429,1.163,2.598,2.598,2.598h7.794h2.599
		h7.793c1.437,0,2.599-1.169,2.599-2.598v-18.187c0-1.429-1.162-2.598-2.599-2.598h-7.793h-2.599H5.082z"/>
	<path fill="#ECF0F1" d="M5.082,1031.534c-1.435,0-2.598,1.164-2.598,2.598v18.187c0,1.436,1.163,2.598,2.598,2.598h7.794h2.599
		h7.793c1.437,0,2.599-1.162,2.599-2.598v-18.187c0-1.435-1.162-2.598-2.599-2.598h-7.793h-2.599H5.082z"/>
	<path fill="#E74C3C" d="M5.082,1031.534c-1.435,0-2.598,1.164-2.598,2.598v3.897v1.299h23.383v-1.299v-3.897
		c0-1.435-1.162-2.598-2.599-2.598h-7.793h-2.599H5.082z"/>
	<path fill="#C0392B" d="M8.329,1034.781c0,1.076-0.873,1.948-1.949,1.948s-1.948-0.872-1.948-1.948s0.872-1.949,1.948-1.949
		S8.329,1033.705,8.329,1034.781z"/>
	<path fill="#BDC3C7" d="M6.381,1028.935c-0.717,0-1.299,0.582-1.299,1.299v3.897c0,0.717,0.582,1.299,1.299,1.299
		c0.718,0,1.299-0.582,1.299-1.299v-3.897C7.68,1029.517,7.098,1028.935,6.381,1028.935z"/>
	<path fill="#C0392B" d="M23.917,1034.781c0,1.076-0.872,1.948-1.948,1.948s-1.948-0.872-1.948-1.948s0.872-1.949,1.948-1.949
		S23.917,1033.705,23.917,1034.781z"/>
	<g>
		<path fill="#BDC3C7" d="M21.969,1028.935c-0.717,0-1.299,0.52-1.299,1.299v3.897c0,0.649,0.582,1.299,1.299,1.299
			s1.299-0.649,1.299-1.299v-3.897C23.268,1029.455,22.686,1028.935,21.969,1028.935z"/>
		<path fill="#BDC3C7" d="M5.082,1041.926v2.598H7.68v-2.598H5.082z M8.979,1041.926v2.598h2.598v-2.598H8.979z M12.876,1041.926
			v2.598h2.599v-2.598H12.876z M16.774,1041.926v2.598h2.597v-2.598H16.774z M20.67,1041.926v2.598h2.598v-2.598H20.67z"/>
		<path fill="#BDC3C7" d="M5.082,1045.822v2.599H7.68v-2.599H5.082z M8.979,1045.822v2.599h2.598v-2.599H8.979z M12.876,1045.822
			v2.599h2.599v-2.599H12.876z M16.774,1045.822v2.599h2.597v-2.599H16.774z M20.67,1045.822v2.599h2.598v-2.599H20.67z"/>
		<path fill="#BDC3C7" d="M5.082,1049.72v2.599H7.68v-2.599H5.082z M8.979,1049.72v2.599h2.598v-2.599H8.979z M12.876,1049.72v2.599
			h2.599v-2.599H12.876z M16.774,1049.72v2.599h2.597v-2.599H16.774z M20.67,1049.72v2.599h2.598v-2.599H20.67z"/>
	</g>
</g>
</svg>
