<svg id="圖層_1" data-name="圖層 1" xmlns="http://www.w3.org/2000/svg" viewBox="0 0 23.28 21.73"><path d="M13.32,3.79l-2.73,2.3a6.28,6.28,0,0,0-1.5,2A2.82,2.82,0,0,0,8.32,8H5.41A3,3,0,0,0,2.5,11.06v6.11a3,3,0,0,0,2.91,3.06H8.32a2.49,2.49,0,0,0,.77-.13,6.22,6.22,0,0,0,1.5,2l2.73,2.29c1.25,1.05,2.27.54,2.27-1.14V4.94C15.59,3.26,14.57,2.74,13.32,3.79Z" transform="translate(-2.5 -3.25)"/><path d="M18.74,18.32a1.09,1.09,0,0,1-.83-.4A1.19,1.19,0,0,1,18,16.3a2.74,2.74,0,0,0,1.06-2A4,4,0,0,0,18,11.89a1.19,1.19,0,0,1-.06-1.62,1.06,1.06,0,0,1,1.54,0,6.2,6.2,0,0,1,1.79,4.14A5,5,0,0,1,19.45,18,1,1,0,0,1,18.74,18.32Z" transform="translate(-2.5 -3.25)"/><path d="M21.36,22.41a1.1,1.1,0,0,1-1-.59,1.19,1.19,0,0,1,.42-1.56c1.55-.91,2.77-3.54,2.77-6S22.35,8.87,20.82,8a1.19,1.19,0,0,1-.42-1.56A1.06,1.06,0,0,1,21.89,6c2.55,1.5,3.88,5.32,3.88,8.31,0,2.83-1.33,6.48-3.88,8A1,1,0,0,1,21.36,22.41Z" transform="translate(-2.5 -3.25)"/></svg>