<?xml version="1.0" encoding="utf-8"?>
<!-- Generator: Adobe Illustrator 16.0.0, SVG Export Plug-In . SVG Version: 6.00 Build 0)  -->
<!DOCTYPE svg PUBLIC "-//W3C//DTD SVG 1.1//EN" "http://www.w3.org/Graphics/SVG/1.1/DTD/svg11.dtd">
<svg version="1.1" id="圖層_1" xmlns="http://www.w3.org/2000/svg" xmlns:xlink="http://www.w3.org/1999/xlink" x="0px" y="0px"
	 width="28.35px" height="28.35px" viewBox="0 0 28.35 28.35" enable-background="new 0 0 28.35 28.35" xml:space="preserve">
<path fill-rule="evenodd" clip-rule="evenodd" fill="#040000" d="M3.161,2.428h8.811c0.404,0,0.734,0.33,0.734,0.736v8.809
	c0,0.406-0.33,0.736-0.734,0.736H3.161c-0.402,0-0.734-0.33-0.734-0.736V3.164C2.427,2.758,2.759,2.428,3.161,2.428L3.161,2.428z
	 M15.277,23.723h9.543c0.607,0,1.102,0.492,1.102,1.102c0,0.602-0.498,1.098-1.102,1.098h-9.543c-0.608,0-1.104-0.492-1.104-1.098
	S14.674,23.723,15.277,23.723L15.277,23.723z M15.277,15.645h9.543c0.607,0,1.102,0.495,1.102,1.102
	c0,0.605-0.498,1.102-1.102,1.102h-9.543c-0.608,0-1.104-0.496-1.104-1.102C14.174,16.14,14.674,15.645,15.277,15.645L15.277,15.645
	z M15.277,19.682h9.543c0.607,0,1.102,0.496,1.102,1.105c0,0.598-0.498,1.098-1.102,1.098h-9.543c-0.608,0-1.104-0.496-1.104-1.098
	C14.174,20.182,14.674,19.682,15.277,19.682L15.277,19.682z M3.161,15.645h8.811c0.404,0,0.734,0.329,0.734,0.734v8.811
	c0,0.402-0.33,0.732-0.734,0.732H3.161c-0.402,0-0.734-0.33-0.734-0.732v-8.811C2.427,15.974,2.759,15.645,3.161,15.645
	L3.161,15.645z M15.277,10.506h9.543c0.607,0,1.102,0.496,1.102,1.098c0,0.605-0.498,1.105-1.102,1.105h-9.543
	c-0.608,0-1.104-0.496-1.104-1.105C14.174,11.006,14.674,10.506,15.277,10.506L15.277,10.506z M15.277,2.428h9.543
	c0.607,0,1.102,0.496,1.102,1.105c0,0.598-0.498,1.098-1.102,1.098h-9.543c-0.608,0-1.104-0.493-1.104-1.098
	C14.174,2.928,14.674,2.428,15.277,2.428L15.277,2.428z M15.277,6.469h9.543c0.607,0,1.102,0.493,1.102,1.101
	c0,0.603-0.498,1.102-1.102,1.102h-9.543c-0.608,0-1.104-0.496-1.104-1.102C14.174,6.965,14.674,6.469,15.277,6.469z"/>
</svg>
