<svg id="Layer_1" data-name="Layer 1" xmlns="http://www.w3.org/2000/svg" viewBox="0 0 56.44 29.77"><defs><style>.cls-1{fill:#fff;}</style></defs><path class="cls-1" d="M56.15,27.24c-.51-.56-12.63-13.78-27.8-13.78S1.05,26.68.55,27.24a1.64,1.64,0,0,0,0,2.21c.5.56,12.62,13.78,27.8,13.78S55.64,30,56.15,29.45A1.66,1.66,0,0,0,56.15,27.24ZM28.35,39.92A11.58,11.58,0,1,1,39.92,28.35,11.58,11.58,0,0,1,28.35,39.92Z" transform="translate(-0.12 -13.46)"/><path class="cls-1" d="M29.7,25.75a3.91,3.91,0,0,1,1.63-3.16,6.42,6.42,0,0,0-2.93-.73,6.49,6.49,0,1,0,6.38,7.58A3.87,3.87,0,0,1,29.7,25.75Z" transform="translate(-0.12 -13.46)"/></svg>