<svg id="圖層_1" data-name="圖層 1" xmlns="http://www.w3.org/2000/svg" viewBox="0 0 27.01 27.01"><defs><style>.cls-1{fill:#fff;}</style></defs><path class="cls-1" d="M17.42,22.22,15,27.14a.84.84,0,0,1-1.57,0l-2.46-4.92a.55.55,0,0,1-.13-.45,1,1,0,0,1,.84-.84h5.07a1,1,0,0,1,.84.84.55.55,0,0,1-.13.45ZM10.93,6.13l2.46-4.92a.84.84,0,0,1,1.57,0l2.46,4.92a.55.55,0,0,1,.13.45,1,1,0,0,1-.84.84H11.64a1,1,0,0,1-.84-.84.55.55,0,0,1,.13-.45Zm11.29,4.8,4.92,2.46a.84.84,0,0,1,0,1.57l-4.92,2.46a.55.55,0,0,1-.45.13,1,1,0,0,1-.85-.84V11.64a1,1,0,0,1,.85-.84c.32,0,.32,0,.45.13ZM11.64,10.8h5.07a.85.85,0,0,1,.84.84v5.07a.84.84,0,0,1-.84.84H11.64a.84.84,0,0,1-.84-.84V11.64a.85.85,0,0,1,.84-.84ZM6.13,17.42,1.21,15a.84.84,0,0,1,0-1.57l4.92-2.46c.13-.09.13-.13.45-.13a1,1,0,0,1,.84.84v5.07a1,1,0,0,1-.84.84A.55.55,0,0,1,6.13,17.42Z" transform="translate(-0.67 -0.67)"/></svg>