<?xml version="1.0" encoding="utf-8"?>
<!-- Generator: Adobe Illustrator 16.0.0, SVG Export Plug-In . SVG Version: 6.00 Build 0)  -->
<!DOCTYPE svg PUBLIC "-//W3C//DTD SVG 1.1//EN" "http://www.w3.org/Graphics/SVG/1.1/DTD/svg11.dtd">
<svg version="1.1" id="圖層_1" xmlns="http://www.w3.org/2000/svg" xmlns:xlink="http://www.w3.org/1999/xlink" x="0px" y="0px"
	 width="28.35px" height="28.35px" viewBox="0 0 28.35 28.35" enable-background="new 0 0 28.35 28.35" xml:space="preserve">
<path d="M10.059,24.475l3.5-4.9l6.299,6.301c0.4,0.4,1,0.4,1.4,0l4.199-4.2c0.4-0.399,0.4-1,0-1.399l-6.398-6.4l5-3.5L1.859,2.175
	L10.059,24.475z M19.159,11.075l-3.301,2.3l7.5,7.5l-2.799,2.8l-7.5-7.5l-2.301,3.3l-5.1-13.6L19.159,11.075z"/>
<path d="M4.419,4.416l6.139,16.286l2.791-2.232c0,0,6.546,6.494,6.85,6.393s4.616-3.906,4.616-3.906l-6.798-7.255l2.131-2.537"/>
</svg>
