<?xml version="1.0" encoding="utf-8"?>
<!-- Generator: Adobe Illustrator 16.0.0, SVG Export Plug-In . SVG Version: 6.00 Build 0)  -->
<!DOCTYPE svg PUBLIC "-//W3C//DTD SVG 1.1//EN" "http://www.w3.org/Graphics/SVG/1.1/DTD/svg11.dtd">
<svg version="1.1" id="圖層_1" xmlns="http://www.w3.org/2000/svg" xmlns:xlink="http://www.w3.org/1999/xlink" x="0px" y="0px"
	 width="28.35px" height="28.35px" viewBox="0 0 28.35 28.35" enable-background="new 0 0 28.35 28.35" xml:space="preserve">
<g>
	<g>
		<path d="M22.691,0.547h-3.406v3.408h3.406V0.547z M26.099,0.547h-1.703v5.111h-6.814V0.547h-6.813v5.111H3.954V0.547H2.251
			c-0.941,0-1.703,0.764-1.703,1.703v23.849c0,0.942,0.762,1.704,1.703,1.704h23.848c0.941,0,1.703-0.762,1.703-1.704V2.25
			C27.802,1.311,27.04,0.547,26.099,0.547z M24.396,24.396H3.954V9.065h20.442V24.396z M9.065,0.547H5.657v3.408h3.408V0.547z
			 M15.878,12.471h-3.407v3.408h3.407V12.471z M20.988,12.471h-3.406v3.408h3.406V12.471z M10.768,17.581H7.36v3.409h3.408V17.581z
			 M10.768,12.471H7.36v3.408h3.408V12.471z M15.878,17.581h-3.407v3.409h3.407V17.581z M20.988,17.581h-3.406v3.409h3.406V17.581z"
			/>
	</g>
</g>
</svg>
