<svg id="圖層_1" data-name="圖層 1" xmlns="http://www.w3.org/2000/svg" viewBox="0 0 26.12 26.12"><path d="M11.35,4.16a10.65,10.65,0,0,0-2.25.93L7.19,3.73a.83.83,0,0,0-1.1.06L4.94,4.94,3.79,6.1a.81.81,0,0,0-.06,1.09L5.09,9.1a10.15,10.15,0,0,0-.93,2.25l-2.31.38a.81.81,0,0,0-.73.81v3.27a.81.81,0,0,0,.73.81L4.16,17a10.27,10.27,0,0,0,.93,2.24L3.73,21.16a.83.83,0,0,0,.06,1.1l1.15,1.15,1.15,1.15a.83.83,0,0,0,1.1.06l1.9-1.36a10.56,10.56,0,0,0,2.25.93l.39,2.31a.81.81,0,0,0,.81.73h3.27a.81.81,0,0,0,.81-.73L17,24.19a10.48,10.48,0,0,0,2.24-.93l1.91,1.36a.81.81,0,0,0,1.09-.06l1.16-1.15,1.15-1.15a.83.83,0,0,0,.06-1.1l-1.37-1.9A10.59,10.59,0,0,0,24.19,17l2.31-.39a.81.81,0,0,0,.73-.81V12.54a.81.81,0,0,0-.73-.81l-2.31-.39a10.3,10.3,0,0,0-.94-2.24l1.37-1.91a.81.81,0,0,0-.06-1.09L23.41,4.94,22.25,3.79a.81.81,0,0,0-1.09-.06L19.25,5.09A11,11,0,0,0,17,4.16l-.39-2.31a.81.81,0,0,0-.81-.73H12.54a.81.81,0,0,0-.81.73l-.38,2.31Zm2.83,5.12a4.9,4.9,0,1,1-4.9,4.9A4.89,4.89,0,0,1,14.18,9.28Z" transform="translate(-1.12 -1.12)"/></svg>