<svg id="圖層_1" data-name="圖層 1" xmlns="http://www.w3.org/2000/svg" viewBox="0 0 23.49 23.49"><defs><style>.cls-1{fill:#fff;fill-rule:evenodd;}</style></defs><path class="cls-1" d="M3.16,2.43H12a.74.74,0,0,1,.74.73V12a.74.74,0,0,1-.74.74H3.16A.74.74,0,0,1,2.43,12V3.16a.73.73,0,0,1,.73-.73ZM15.28,23.72h9.54a1.1,1.1,0,0,1,0,2.2H15.28a1.1,1.1,0,1,1,0-2.2Zm0-8.07h9.54a1.1,1.1,0,0,1,1.1,1.1,1.11,1.11,0,0,1-1.1,1.1H15.28a1.1,1.1,0,1,1,0-2.2Zm0,4h9.54a1.1,1.1,0,1,1,0,2.2H15.28a1.1,1.1,0,1,1,0-2.2Zm-12.12-4H12a.73.73,0,0,1,.74.73v8.81a.74.74,0,0,1-.74.73H3.16a.73.73,0,0,1-.73-.73V16.38a.73.73,0,0,1,.73-.73Zm12.12-5.14h9.54a1.09,1.09,0,0,1,1.1,1.09,1.11,1.11,0,0,1-1.1,1.11H15.28a1.1,1.1,0,1,1,0-2.2Zm0-8.08h9.54a1.1,1.1,0,0,1,1.1,1.1,1.11,1.11,0,0,1-1.1,1.1H15.28a1.1,1.1,0,1,1,0-2.2Zm0,4h9.54a1.1,1.1,0,0,1,1.1,1.1,1.11,1.11,0,0,1-1.1,1.1H15.28a1.1,1.1,0,1,1,0-2.2Z" transform="translate(-2.43 -2.43)"/></svg>