<?xml version="1.0" encoding="utf-8"?>
<!-- Generator: Adobe Illustrator 16.0.0, SVG Export Plug-In . SVG Version: 6.00 Build 0)  -->
<!DOCTYPE svg PUBLIC "-//W3C//DTD SVG 1.1//EN" "http://www.w3.org/Graphics/SVG/1.1/DTD/svg11.dtd">
<svg version="1.1" id="圖層_1" xmlns="http://www.w3.org/2000/svg" xmlns:xlink="http://www.w3.org/1999/xlink" x="0px" y="0px"
	 width="28.35px" height="28.35px" viewBox="0 0 28.35 28.35" enable-background="new 0 0 28.35 28.35" xml:space="preserve">
<linearGradient id="SVGID_1_" gradientUnits="userSpaceOnUse" x1="14.1753" y1="27.4414" x2="14.1753" y2="0.9082">
	<stop  offset="0" style="stop-color:#040000"/>
	<stop  offset="1" style="stop-color:#575858"/>
</linearGradient>
<path fill-rule="evenodd" clip-rule="evenodd" fill="url(#SVGID_1_)" d="M14.174,0.908c-7.325,0-13.266,5.942-13.266,13.267
	s5.941,13.267,13.266,13.267c7.326,0,13.268-5.941,13.268-13.267S21.5,0.908,14.174,0.908L14.174,0.908z M23.738,19.15
	c-0.879,1.686-2.19,3.107-3.789,4.125l0.004-0.004c0.65-1.178,1.174-2.578,1.537-4.121H23.738L23.738,19.15z M18.929,19.15
	c-0.297,1.092-0.688,2.082-1.152,2.928c-0.674,1.215-1.482,2.115-2.357,2.561V19.15H18.929L18.929,19.15z M12.931,19.15v5.488
	c-0.876-0.445-1.688-1.346-2.359-2.561c-0.468-0.846-0.858-1.836-1.155-2.928H12.931L12.931,19.15z M6.856,19.15
	c0.362,1.543,0.89,2.943,1.539,4.121l0.001,0.004C6.8,22.258,5.489,20.836,4.608,19.15H6.856L6.856,19.15z M3.684,16.662
	c-0.189-0.797-0.289-1.633-0.289-2.487c0-0.857,0.1-1.688,0.289-2.487h2.75c-0.091,0.805-0.138,1.638-0.138,2.487
	c0,0.851,0.046,1.681,0.138,2.487H3.684L3.684,16.662z M8.935,16.662c-0.1-0.797-0.152-1.631-0.152-2.487
	c0-0.857,0.053-1.688,0.152-2.487h3.996v4.974H8.935L8.935,16.662z M15.419,16.662v-4.974h3.995c0.097,0.798,0.148,1.63,0.148,2.487
	c0,0.856-0.052,1.69-0.148,2.487H15.419L15.419,16.662z M21.916,16.662c0.087-0.807,0.134-1.637,0.134-2.487
	c0-0.849-0.047-1.682-0.134-2.487h2.748c0.188,0.798,0.289,1.63,0.289,2.487c0,0.854-0.101,1.69-0.289,2.487H21.916L21.916,16.662z
	 M4.608,9.2C5.489,7.515,6.8,6.09,8.396,5.074L8.395,5.076C7.746,6.255,7.218,7.652,6.856,9.2H4.608L4.608,9.2z M9.417,9.2
	c0.296-1.095,0.687-2.083,1.155-2.928c0.671-1.217,1.483-2.116,2.359-2.561V9.2H9.417L9.417,9.2z M15.419,9.2V3.711
	c0.875,0.445,1.684,1.343,2.357,2.561c0.465,0.845,0.855,1.833,1.152,2.928H15.419L15.419,9.2z M21.49,9.2
	c-0.363-1.547-0.887-2.945-1.537-4.124l-0.004-0.002c1.599,1.016,2.91,2.44,3.789,4.125H21.49z"/>
</svg>
