<?xml version="1.0" encoding="utf-8"?>
<!-- Generator: Adobe Illustrator 16.0.0, SVG Export Plug-In . SVG Version: 6.00 Build 0)  -->
<!DOCTYPE svg PUBLIC "-//W3C//DTD SVG 1.1//EN" "http://www.w3.org/Graphics/SVG/1.1/DTD/svg11.dtd">
<svg version="1.1" id="圖層_1" xmlns="http://www.w3.org/2000/svg" xmlns:xlink="http://www.w3.org/1999/xlink" x="0px" y="0px"
	 width="28.35px" height="28.35px" viewBox="0 0 28.35 28.35" enable-background="new 0 0 28.35 28.35" xml:space="preserve">
<g>
	<path d="M19.642,12.022h3.041c0.669,0,1.212-0.545,1.212-1.217c0-0.344-0.138-0.646-0.364-0.867l-8.497-8.495
		c-0.236-0.235-0.549-0.355-0.857-0.355c-0.312,0-0.624,0.12-0.861,0.355L4.819,9.938c-0.223,0.221-0.364,0.523-0.364,0.867
		c0,0.672,0.545,1.217,1.216,1.217h3.036"/>
	<path d="M8.709,16.326H5.67c-0.672,0-1.215,0.545-1.215,1.218c0,0.343,0.138,0.646,0.364,0.868l8.495,8.496
		c0.237,0.234,0.55,0.354,0.859,0.354c0.312,0,0.622-0.121,0.861-0.354l8.497-8.496c0.226-0.223,0.363-0.525,0.363-0.868
		c0-0.673-0.545-1.218-1.214-1.218h-3.04"/>
</g>
</svg>
