<svg id="圖層_1" data-name="圖層 1" xmlns="http://www.w3.org/2000/svg" viewBox="0 0 23.9 24"><defs><style>.cls-1{fill:#fff;}</style></defs><path class="cls-1" d="M10.06,24.48l3.5-4.9,6.3,6.3a1,1,0,0,0,1.4,0l4.2-4.2a1,1,0,0,0,0-1.4l-6.4-6.4,5-3.5L1.86,2.17Zm9.1-13.41-3.3,2.31,7.5,7.5-2.8,2.79-7.5-7.5-2.3,3.3L5.66,5.87Z" transform="translate(-1.86 -2.17)"/><path class="cls-1" d="M4.42,4.42,10.56,20.7l2.79-2.23S19.9,25,20.2,24.86,24.82,21,24.82,21L18,13.7l2.13-2.54" transform="translate(-1.86 -2.17)"/></svg>