<svg id="圖層_1" data-name="圖層 1" xmlns="http://www.w3.org/2000/svg" viewBox="0 0 20.2 19.59"><path d="M23.25,4.3,20.19,7.36A9.35,9.35,0,0,0,4.72,9.87a8.36,8.36,0,0,0-.32.83,1.26,1.26,0,0,0,.8,1.6,1.34,1.34,0,0,0,.39.07,1.26,1.26,0,0,0,1.2-.87q.11-.3.24-.6A6.82,6.82,0,0,1,18.4,9.15l-3.09,3.09c-.25.25-.17.45.18.45h7.58a.63.63,0,0,0,.63-.63V4.48C23.7,4.14,23.5,4.05,23.25,4.3Z" transform="translate(-3.5 -4.16)"/><path d="M21.08,16.53a1.26,1.26,0,0,0-1.7.55A6.82,6.82,0,0,1,8.6,19l3.29-3.29c.24-.24.16-.44-.19-.44H4.13a.63.63,0,0,0-.63.63v7.57c0,.35.2.43.44.19l2.88-2.88a9.35,9.35,0,0,0,14.81-2.5A1.27,1.27,0,0,0,21.08,16.53Z" transform="translate(-3.5 -4.16)"/></svg>