<?xml version="1.0" encoding="utf-8"?>
<!-- Generator: Adobe Illustrator 16.0.0, SVG Export Plug-In . SVG Version: 6.00 Build 0)  -->
<!DOCTYPE svg PUBLIC "-//W3C//DTD SVG 1.1//EN" "http://www.w3.org/Graphics/SVG/1.1/DTD/svg11.dtd">
<svg version="1.1" id="圖層_1" xmlns="http://www.w3.org/2000/svg" xmlns:xlink="http://www.w3.org/1999/xlink" x="0px" y="0px"
	 width="28.35px" height="28.35px" viewBox="0 0 28.35 28.35" enable-background="new 0 0 28.35 28.35" xml:space="preserve">
<linearGradient id="SVGID_1_" gradientUnits="userSpaceOnUse" x1="14.1753" y1="27.2344" x2="14.1753" y2="1.1162">
	<stop  offset="0" style="stop-color:#040000"/>
	<stop  offset="1" style="stop-color:#575858"/>
</linearGradient>
<path fill-rule="evenodd" clip-rule="evenodd" fill="url(#SVGID_1_)" d="M11.345,4.161C10.551,4.385,9.799,4.7,9.096,5.095
	L7.188,3.732C6.867,3.468,6.395,3.486,6.093,3.787L4.938,4.942L3.786,6.096C3.486,6.394,3.468,6.868,3.731,7.188l1.363,1.908
	c-0.397,0.704-0.71,1.458-0.935,2.249l-2.311,0.386c-0.412,0.042-0.732,0.391-0.732,0.812v1.632v1.634
	c0,0.424,0.32,0.771,0.732,0.811l2.311,0.387c0.224,0.793,0.539,1.545,0.935,2.248L3.731,21.16
	c-0.263,0.322-0.245,0.795,0.055,1.096l1.153,1.154l1.154,1.154c0.302,0.299,0.774,0.316,1.096,0.055l1.905-1.363
	c0.704,0.396,1.457,0.711,2.251,0.934l0.385,2.312c0.04,0.412,0.388,0.732,0.811,0.732h1.634h1.632c0.424,0,0.77-0.32,0.812-0.732
	l0.387-2.312c0.789-0.223,1.543-0.539,2.248-0.934l1.908,1.363c0.32,0.262,0.793,0.244,1.092-0.055l1.154-1.154l1.154-1.154
	c0.299-0.301,0.318-0.773,0.057-1.096l-1.365-1.904c0.396-0.703,0.711-1.457,0.936-2.25l2.309-0.387
	c0.412-0.039,0.736-0.387,0.736-0.811v-1.634v-1.632c0-0.421-0.324-0.77-0.736-0.812l-2.309-0.386
	c-0.225-0.79-0.539-1.544-0.936-2.249l1.365-1.908c0.262-0.32,0.242-0.794-0.057-1.092l-1.154-1.154l-1.154-1.155
	c-0.299-0.301-0.771-0.319-1.092-0.055l-1.908,1.363c-0.705-0.395-1.459-0.709-2.248-0.934l-0.387-2.31
	c-0.043-0.411-0.389-0.735-0.812-0.735h-1.632h-1.634c-0.423,0-0.771,0.324-0.811,0.735L11.345,4.161L11.345,4.161z M14.175,9.277
	c2.704,0,4.896,2.195,4.896,4.898c0,2.706-2.191,4.897-4.896,4.897c-2.705,0-4.898-2.191-4.898-4.897
	C9.277,11.472,11.47,9.277,14.175,9.277z"/>
</svg>
