<svg id="Layer_1" data-name="Layer 1" xmlns="http://www.w3.org/2000/svg" viewBox="0 0 49.25 49.25"><defs><style>.cls-1{fill:#fff;}</style></defs><path class="cls-1" d="M28.35,5.16A24.62,24.62,0,1,0,53,29.78,24.63,24.63,0,0,0,28.35,5.16ZM20.71,40.89A3.24,3.24,0,1,1,24,37.65,3.24,3.24,0,0,1,20.71,40.89Zm8.12,0a11.34,11.34,0,0,0-3.33-8.08,11.21,11.21,0,0,0-8-3.34V24.81a16.09,16.09,0,0,1,16,16.1Zm8.26,0A19.69,19.69,0,0,0,17.48,21.2V16.53A24.36,24.36,0,0,1,41.76,40.92Z" transform="translate(-3.72 -5.16)"/></svg>