<svg id="圖層_1" data-name="圖層 1" xmlns="http://www.w3.org/2000/svg" viewBox="0 0 26.53 26.53"><defs><style>.cls-1{fill:#fff;fill-rule:evenodd;}</style></defs><path class="cls-1" d="M14.17.91A13.27,13.27,0,1,0,27.44,14.18,13.27,13.27,0,0,0,14.17.91Zm9.57,18.24A10.73,10.73,0,0,1,20,23.27h0a16.26,16.26,0,0,0,1.54-4.12Zm-4.81,0a14,14,0,0,1-1.15,2.93,6.18,6.18,0,0,1-2.36,2.56V19.15Zm-6,0v5.49a6.11,6.11,0,0,1-2.36-2.56,13,13,0,0,1-1.15-2.93Zm-6.07,0A16.26,16.26,0,0,0,8.4,23.27h0a10.73,10.73,0,0,1-3.79-4.12ZM3.68,16.66a11.22,11.22,0,0,1-.29-2.48,10.74,10.74,0,0,1,.29-2.49H6.43a22.42,22.42,0,0,0-.13,2.49,22.24,22.24,0,0,0,.13,2.48Zm5.26,0a19.38,19.38,0,0,1,0-5h4v5Zm6.48,0v-5h4a20.07,20.07,0,0,1,.15,2.49,19.91,19.91,0,0,1-.15,2.48Zm6.5,0c.08-.8.13-1.63.13-2.48s-.05-1.69-.13-2.49h2.74a10.79,10.79,0,0,1,0,5ZM4.61,9.2A10.83,10.83,0,0,1,8.4,5.07h0A16.12,16.12,0,0,0,6.86,9.2Zm4.81,0a12.78,12.78,0,0,1,1.15-2.93,6.05,6.05,0,0,1,2.36-2.56V9.2Zm6,0V3.71a6.18,6.18,0,0,1,2.36,2.56A14,14,0,0,1,18.93,9.2Zm6.07,0A16.12,16.12,0,0,0,20,5.08h0A10.83,10.83,0,0,1,23.74,9.2Z" transform="translate(-0.91 -0.91)"/></svg>