<?xml version="1.0" ?><svg data-name="015_HEALTH" height="24" id="_015_HEALTH" viewBox="0 0 24 24" width="24" xmlns="http://www.w3.org/2000/svg"><title/><path d="M12,15c-4.13184,0-7.98-1.21436-10.29395-3.249a.99989.99989,0,1,1,1.32031-1.502C4.98584,11.97168,8.34033,13,12,13s7.01416-1.02832,8.97363-2.751a.99989.99989,0,1,1,1.32031,1.502C19.98,13.78564,16.13184,15,12,15Z" style="fill:#333"/><path d="M12,18a1,1,0,0,1-1-1V14a1,1,0,0,1,2,0v3A1,1,0,0,1,12,18Z" style="fill:#333"/><path d="M7.74854,17.66748a.96422.96422,0,0,1-.17041-.01465A.99922.99922,0,0,1,6.76221,16.498L7.26709,13.563a.99981.99981,0,1,1,1.9707.33887l-.50488,2.93506A1,1,0,0,1,7.74854,17.66748Z" style="fill:#333"/><path d="M3.63574,16.30615a1.00123,1.00123,0,0,1-.94189-1.33643l.97852-2.74463a1,1,0,1,1,1.88379.67188L4.57764,15.6416A1.00085,1.00085,0,0,1,3.63574,16.30615Z" style="fill:#333"/><path d="M16.25146,17.66748a1,1,0,0,1-.98437-.83057l-.50488-2.93506a.99981.99981,0,0,1,1.9707-.33887l.50488,2.93506a.99922.99922,0,0,1-.81592,1.15479A.96422.96422,0,0,1,16.25146,17.66748Z" style="fill:#333"/><path d="M20.36426,16.30615a1.00038,1.00038,0,0,1-.94189-.66455L18.44385,12.897a1,1,0,1,1,1.88379-.67187l.97852,2.74463a1.00123,1.00123,0,0,1-.94189,1.33643Z" style="fill:#333"/></svg>