<svg id="圖層_1" data-name="圖層 1" xmlns="http://www.w3.org/2000/svg" viewBox="0 0 18.63 22.93"><defs><style>.cls-1{fill:#fff;}</style></defs><path class="cls-1" d="M14.17,2.71c-2.57,0-4.65,1.59-4.65,5.1s2.15,6.37,4.65,6.37,4.66-2.87,4.66-6.37-2.08-5.1-4.66-5.1ZM8.76,16.48a16.42,16.42,0,0,1,5.41-.87,16.48,16.48,0,0,1,5.42.87,7.24,7.24,0,0,1,3.64,2.61,1.38,1.38,0,0,1,.26.82v4.3a1.43,1.43,0,0,1-1.43,1.43H6.29a1.43,1.43,0,0,1-1.43-1.43V19.92a1.42,1.42,0,0,1,.24-.81A7.31,7.31,0,0,1,8.76,16.48Z" transform="translate(-4.86 -2.71)"/></svg>