<svg id="圖層_1" data-name="圖層 1" xmlns="http://www.w3.org/2000/svg" viewBox="0 0 20.2 19.64"><defs><style>.cls-1{fill:#fff;}</style></defs><path class="cls-1" d="M19.75.14,16.69,3.2A9.36,9.36,0,0,0,3.48,2.57,9.51,9.51,0,0,0,1.22,5.71a8.36,8.36,0,0,0-.32.83,1.27,1.27,0,0,0,.79,1.6h0a1.34,1.34,0,0,0,.39.07,1.26,1.26,0,0,0,1.2-.87q.1-.3.24-.6a6.83,6.83,0,0,1,9-3.5A7,7,0,0,1,14.9,5L11.81,8.08c-.25.25-.17.45.18.45h7.58a.63.63,0,0,0,.63-.63V.32C20.2,0,20-.11,19.75.14Z" transform="translate(0 0)"/><path class="cls-1" d="M17.58,12.37a1.27,1.27,0,0,0-1.7.54h0A6.83,6.83,0,0,1,6.73,16,7,7,0,0,1,5.1,14.84l3.29-3.29c.24-.24.16-.44-.19-.44H.63a.63.63,0,0,0-.63.63H0v7.57c0,.35.2.43.44.19l2.88-2.88a9.35,9.35,0,0,0,13.22-.26,9.5,9.5,0,0,0,1.59-2.24,1.27,1.27,0,0,0-.5-1.72Z" transform="translate(0 0)"/></svg>