<?xml version="1.0" encoding="utf-8"?>
<!-- Generator: Adobe Illustrator 16.0.0, SVG Export Plug-In . SVG Version: 6.00 Build 0)  -->
<!DOCTYPE svg PUBLIC "-//W3C//DTD SVG 1.1//EN" "http://www.w3.org/Graphics/SVG/1.1/DTD/svg11.dtd">
<svg version="1.1" id="圖層_1" xmlns="http://www.w3.org/2000/svg" xmlns:xlink="http://www.w3.org/1999/xlink" x="0px" y="0px"
	 width="28.35px" height="28.35px" viewBox="0 0 28.35 28.35" enable-background="new 0 0 28.35 28.35" xml:space="preserve">
<path d="M14.174,2.711c-2.57,0-4.657,1.594-4.657,5.096c0,3.506,2.15,6.371,4.657,6.371c2.509,0,4.659-2.865,4.659-6.371
	C18.833,4.305,16.747,2.711,14.174,2.711L14.174,2.711z M8.759,16.479c1.716-0.623,3.693-0.866,5.415-0.866
	c1.724,0,3.7,0.243,5.415,0.866c1.506,0.547,2.818,1.39,3.644,2.611c0.162,0.229,0.259,0.516,0.259,0.818v4.301
	c0,0.789-0.644,1.43-1.436,1.43h-7.882h-7.88c-0.791,0-1.435-0.641-1.435-1.43v-4.287c-0.003-0.281,0.075-0.562,0.241-0.812
	C5.925,17.875,7.247,17.027,8.759,16.479z"/>
</svg>
