<?xml version="1.0" encoding="utf-8"?>
<!-- Generator: Adobe Illustrator 27.7.0, SVG Export Plug-In . SVG Version: 6.00 Build 0)  -->
<svg version="1.1" id="圖層_1" xmlns="http://www.w3.org/2000/svg" xmlns:xlink="http://www.w3.org/1999/xlink" x="0px" y="0px"
	 viewBox="0 0 24 24" style="enable-background:new 0 0 24 24;" xml:space="preserve">
<style type="text/css">
	.st0{fill:#fff}
</style>
<g>
	<path class="st0" d="M4.9,16.1c0,1.1,0.4,2.1,1.2,2.9c0.8,0.8,1.8,1.2,2.9,1.2h5.9c1.1,0,2.1-0.4,2.9-1.2c0.8-0.8,1.2-1.8,1.2-2.9
		c0-1.1-0.4-2.1-1.2-2.9C17,12.4,16,12,14.9,12H9c-1.1,0-2.1,0.4-2.9,1.2C5.4,14,4.9,15,4.9,16.1z M9,13h5.9c0.8,0,1.6,0.3,2.1,0.9
		c0.6,0.6,0.9,1.3,0.9,2.1c0,0.8-0.3,1.6-0.9,2.1c-0.6,0.6-1.3,0.9-2.1,0.9H9c-0.8,0-1.6-0.3-2.1-0.9C6.3,17.6,6,16.9,6,16.1
		c0-0.8,0.3-1.6,0.9-2.1C7.4,13.3,8.2,13,9,13z"/>
	<path class="st0" d="M9.4,10.1c0.7,0.7,1.6,1.1,2.6,1.1c1,0,1.9-0.4,2.6-1l0,0c0.7-0.7,1.1-1.6,1.1-2.6c0-1-0.4-1.9-1.1-2.6
		C13.9,4.3,13,3.9,12,3.9c-1,0-1.9,0.4-2.6,1l0,0C8.7,5.7,8.4,6.6,8.4,7.5C8.4,8.5,8.7,9.4,9.4,10.1L9.4,10.1z M9.4,7.5
		c0-0.7,0.3-1.4,0.8-1.9c0.5-0.5,1.2-0.8,1.8-0.8c0.7,0,1.4,0.3,1.9,0.8c0.5,0.5,0.8,1.2,0.8,1.9c0,0.7-0.3,1.4-0.8,1.9
		c-0.5,0.5-1.2,0.8-1.8,0.8c-0.7,0-1.4-0.3-1.9-0.8C9.6,8.9,9.4,8.2,9.4,7.5z"/>
	<path class="st0" d="M20.5,3.5C18.2,1.2,15.2,0,12,0c-1.2,0-2.4,0.2-3.5,0.5C7.3,0.9,6.2,1.4,5.2,2.1C5,2.2,5,2.6,5.1,2.8
		C5.3,3,5.6,3.1,5.8,2.9c0.9-0.6,1.9-1.1,2.9-1.4C9.8,1.2,10.9,1,12,1c2.9,0,5.7,1.1,7.8,3.2C21.8,6.3,23,9.1,23,12
		s-1.1,5.7-3.2,7.8C17.7,21.8,14.9,23,12,23s-5.7-1.1-7.8-3.2C2.2,17.7,1,14.9,1,12c0-1,0.1-1.9,0.4-2.9C1.6,8.2,2,7.3,2.5,6.5
		c0.1-0.1,0.1-0.3,0.1-0.4c0-0.1-0.1-0.2-0.2-0.3C2.1,5.6,1.8,5.7,1.6,5.9v0C1.1,6.9,0.7,7.8,0.4,8.9C0.1,9.9,0,10.9,0,12
		c0,3.2,1.2,6.2,3.5,8.5C5.8,22.8,8.8,24,12,24c3.2,0,6.2-1.2,8.5-3.5c2.3-2.3,3.5-5.3,3.5-8.5C24,8.8,22.8,5.8,20.5,3.5z"/>
	<path class="st0" d="M3.6,4.6c0.1,0,0.3-0.1,0.4-0.2l0,0c0.2-0.2,0.2-0.5,0-0.7C3.9,3.6,3.8,3.6,3.6,3.6c-0.1,0-0.3,0.1-0.3,0.2
		l0,0C3.2,3.9,3.1,4,3.1,4.2c0,0.1,0.1,0.3,0.2,0.3C3.4,4.6,3.5,4.6,3.6,4.6z"/>
</g>
</svg>
