<svg id="Layer_1" data-name="Layer 1" xmlns="http://www.w3.org/2000/svg" viewBox="0 0 42.08 51.67"><defs><style>.cls-1{fill:#fff;}</style></defs><path class="cls-1" d="M42.45,30A11.73,11.73,0,0,1,48,20.12,12.07,12.07,0,0,0,38.58,15c-4-.41-7.85,2.37-9.89,2.37s-5.19-2.31-8.53-2.26A12.66,12.66,0,0,0,9.47,21.61c-4.56,7.9-1.16,19.62,3.28,26,2.17,3.14,4.76,6.67,8.15,6.54s4.51-2.12,8.47-2.12,5.07,2.12,8.53,2,5.75-3.19,7.91-6.34a28.5,28.5,0,0,0,3.57-7.35A11.44,11.44,0,0,1,42.45,30Z" transform="translate(-7.31 -2.51)"/><path class="cls-1" d="M35.94,10.76a11.34,11.34,0,0,0,2.69-8.25A11.62,11.62,0,0,0,31,6.42a10.86,10.86,0,0,0-2.74,8A9.6,9.6,0,0,0,35.94,10.76Z" transform="translate(-7.31 -2.51)"/></svg>