<svg id="Layer_1" data-name="Layer 1" xmlns="http://www.w3.org/2000/svg" viewBox="0 0 49.25 49.25"><defs><style>.cls-1{fill:#fff;}</style></defs><path class="cls-1" d="M28.35,5.16A24.62,24.62,0,1,0,53,29.78,24.63,24.63,0,0,0,28.35,5.16ZM42.61,23.72C41,33,31.78,40.83,29,42.62s-5.28-.72-6.2-2.61c-1-2.17-4.18-13.9-5-14.87s-3.29,1-3.29,1l-1.2-1.57s5-6,8.82-6.73c4-.79,4,6.21,5,10.09s1.57,5.9,2.39,5.9,2.39-2.09,4.11-5.3-.08-6.06-3.44-4C31.55,16.4,44.26,14.45,42.61,23.72Z" transform="translate(-3.72 -5.16)"/></svg>