<svg id="圖層_1" data-name="圖層 1" xmlns="http://www.w3.org/2000/svg" viewBox="0 0 19.44 26.17"><defs><style>.cls-1{fill:#fff;}</style></defs><path class="cls-1" d="M19.64,12h3a1.22,1.22,0,0,0,1.22-1.21,1.18,1.18,0,0,0-.37-.87L15,1.44a1.22,1.22,0,0,0-1.71,0l-8.5,8.5A1.21,1.21,0,0,0,5.67,12h3" transform="translate(-4.45 -1.09)"/><path class="cls-1" d="M8.71,16.33h-3a1.22,1.22,0,0,0-1.22,1.21,1.18,1.18,0,0,0,.37.87l8.49,8.5a1.23,1.23,0,0,0,1.72,0l8.5-8.5a1.18,1.18,0,0,0,.36-.87,1.21,1.21,0,0,0-1.21-1.21h-3" transform="translate(-4.45 -1.09)"/></svg>