<svg id="圖層_1" data-name="圖層 1" xmlns="http://www.w3.org/2000/svg" viewBox="0 0 23.27 21.69"><defs><style>.cls-1{fill:#fff;}</style></defs><path class="cls-1" d="M10.82.54,8.09,2.84a6.26,6.26,0,0,0-1.5,2,2.5,2.5,0,0,0-.77-.09H2.91A3,3,0,0,0,0,7.81v6.11A3,3,0,0,0,2.91,17H5.82a2.54,2.54,0,0,0,.77-.13,6.26,6.26,0,0,0,1.5,2l2.73,2.29c1.25,1.05,2.27.54,2.27-1.14V1.69C13.09,0,12.07-.51,10.82.54Z" transform="translate(0 0)"/><path class="cls-1" d="M16.24,15.07a1.07,1.07,0,0,1-.83-.4,1.19,1.19,0,0,1,.09-1.62,2.72,2.72,0,0,0,1.06-2A4,4,0,0,0,15.5,8.64,1.19,1.19,0,0,1,15.44,7a1.06,1.06,0,0,1,1.5,0l0,0a6.2,6.2,0,0,1,1.79,4.14A5,5,0,0,1,17,14.75,1,1,0,0,1,16.24,15.07Z" transform="translate(0 0)"/><path class="cls-1" d="M18.86,19.16a1.1,1.1,0,0,1-1-.59A1.18,1.18,0,0,1,18.28,17c1.55-.91,2.77-3.54,2.77-6s-1.2-5.39-2.73-6.26a1.18,1.18,0,0,1-.42-1.56,1.07,1.07,0,0,1,1.42-.48l.07,0c2.55,1.5,3.88,5.32,3.88,8.31,0,2.83-1.33,6.48-3.88,8A1,1,0,0,1,18.86,19.16Z" transform="translate(0 0)"/></svg>