<svg id="圖層_1" data-name="圖層 1" xmlns="http://www.w3.org/2000/svg" viewBox="0 0 27.44 27.44"><path d="M16.35,17.36a4.22,4.22,0,0,1,.76,2.41,4.13,4.13,0,0,1-1.23,2.95h0L12,26.63a4.2,4.2,0,0,1-5.92,0L1.73,22.29a4.18,4.18,0,0,1,0-5.92l3.89-3.9h0A4.17,4.17,0,0,1,11,12L8.08,14.92h0l-3.9,3.91a.67.67,0,0,0-.21.5.71.71,0,0,0,.21.51l4.33,4.34a.7.7,0,0,0,.51.2.72.72,0,0,0,.51-.2l3.9-3.91h0l2.92-2.91Zm.11-7.92L9.53,16.37A1.74,1.74,0,1,0,12,18.83l6.94-6.94a1.74,1.74,0,1,0-2.46-2.45Zm5.92-7.81a4.2,4.2,0,0,0-5.92,0l-3.9,3.91h0a4.19,4.19,0,0,0-.46,5.36l6.81-6.81a.73.73,0,0,1,.51-.21.71.71,0,0,1,.51.21l4.33,4.33a.71.71,0,0,1,.21.51.73.73,0,0,1-.21.51l-3.9,3.9h0l-2.91,2.91a4.15,4.15,0,0,0,2.41.76,4.2,4.2,0,0,0,3-1.22h0l3.89-3.9a4.18,4.18,0,0,0,0-5.92Z" transform="translate(-0.5 -0.41)"/></svg>