<svg id="Layer_1" data-name="Layer 1" xmlns="http://www.w3.org/2000/svg" viewBox="0 0 49.25 49.25"><defs><style>.cls-1{fill:#fff;}</style></defs><polygon class="cls-1" points="14.11 26.7 15.89 26.7 15.89 35.55 17.62 35.55 17.62 26.7 19.4 26.7 19.4 25.19 14.11 25.19 14.11 26.7"/><path class="cls-1" d="M32.21,33a1.49,1.49,0,0,0-.7.18,2.31,2.31,0,0,0-.66.54V30.35H29.31V40.71h1.54v-.59a1.88,1.88,0,0,0,.66.52,1.71,1.71,0,0,0,.8.17,1.24,1.24,0,0,0,1-.43,1.92,1.92,0,0,0,.36-1.25V34.89a2.24,2.24,0,0,0-.38-1.43A1.31,1.31,0,0,0,32.21,33Zm-.08,6a.82.82,0,0,1-.14.53.48.48,0,0,1-.41.16,1,1,0,0,1-.37-.08,1.61,1.61,0,0,1-.36-.27V34.49a1.28,1.28,0,0,1,.32-.23.72.72,0,0,1,.32-.08.6.6,0,0,1,.48.2,1,1,0,0,1,.16.59Z" transform="translate(-3.72 -5.15)"/><path class="cls-1" d="M26.63,38.87a2,2,0,0,1-.47.41.88.88,0,0,1-.43.16.36.36,0,0,1-.31-.12.59.59,0,0,1-.1-.39V33.06H23.79v6.4a1.61,1.61,0,0,0,.27,1,.94.94,0,0,0,.8.34,1.81,1.81,0,0,0,.89-.24,3.31,3.31,0,0,0,.88-.71v.84h1.53V33.06H26.63v5.81Z" transform="translate(-3.72 -5.15)"/><path class="cls-1" d="M28.41,24.49A.78.78,0,0,0,29,24.3a.68.68,0,0,0,.21-.53V19.18a.54.54,0,0,0-.21-.44.84.84,0,0,0-.56-.18.72.72,0,0,0-.51.18.55.55,0,0,0-.19.44v4.59a.72.72,0,0,0,.18.53A.68.68,0,0,0,28.41,24.49Z" transform="translate(-3.72 -5.15)"/><path class="cls-1" d="M28.35,5.15A24.63,24.63,0,1,0,53,29.78,24.63,24.63,0,0,0,28.35,5.15Zm4,12.17H34v6.46a.63.63,0,0,0,.12.43.39.39,0,0,0,.35.13,1,1,0,0,0,.47-.17,2.09,2.09,0,0,0,.53-.46V17.32h1.73v8.42H35.51v-.93a3.37,3.37,0,0,1-1,.78,2.11,2.11,0,0,1-1,.27,1.06,1.06,0,0,1-.9-.38,1.74,1.74,0,0,1-.3-1.12Zm-6.4,1.92h0a1.92,1.92,0,0,1,.7-1.56,2.86,2.86,0,0,1,1.87-.58,2.57,2.57,0,0,1,1.75.61,2.05,2.05,0,0,1,.68,1.58v4.35a2.17,2.17,0,0,1-.67,1.7,2.62,2.62,0,0,1-1.84.61,2.56,2.56,0,0,1-1.81-.63,2.26,2.26,0,0,1-.68-1.71Zm-4.68-4.92,1.26,4.57h.12l1.2-4.57h2L23.54,21v4.73H21.6V21.22l-2.31-6.9Zm22.54,24a5.52,5.52,0,0,1-5.52,5.52H19.09a5.52,5.52,0,0,1-5.52-5.52V33.92a5.52,5.52,0,0,1,5.52-5.52H38.27a5.52,5.52,0,0,1,5.52,5.52Z" transform="translate(-3.72 -5.15)"/><path class="cls-1" d="M36.83,32.87a2.32,2.32,0,0,0-1.68.63,2.17,2.17,0,0,0-.65,1.62v3.44a2.45,2.45,0,0,0,.59,1.73,2.13,2.13,0,0,0,1.62.63,2.31,2.31,0,0,0,1.72-.59A2.48,2.48,0,0,0,39,38.56v-.4H37.43v.35a1.62,1.62,0,0,1-.15.87.61.61,0,0,1-.53.2.56.56,0,0,1-.52-.23,1.66,1.66,0,0,1-.15-.84V37.07H39v-2a2.3,2.3,0,0,0-.56-1.67A2.17,2.17,0,0,0,36.83,32.87Zm.6,3H36.08v-.77a1.13,1.13,0,0,1,.16-.69.6.6,0,0,1,.52-.21.6.6,0,0,1,.51.21,1.13,1.13,0,0,1,.16.69v.77Z" transform="translate(-3.72 -5.15)"/></svg>