<svg id="圖層_1" data-name="圖層 1" xmlns="http://www.w3.org/2000/svg" viewBox="0 0 24.36 27.84"><defs><style>.cls-1{fill:#fff;}</style></defs><path class="cls-1" d="M21.13,12.44H3.74V24.62A3.49,3.49,0,0,0,7.22,28.1H21.13a3.49,3.49,0,0,0,3.48-3.48V12.44ZM10.69,23.75a.88.88,0,0,1-.87.87H8.08a.87.87,0,0,1-.87-.87v-7a.88.88,0,0,1,.87-.87H9.82a.88.88,0,0,1,.87.87v7Zm5.22,0a.88.88,0,0,1-.87.87H13.31a.88.88,0,0,1-.88-.87v-7a.88.88,0,0,1,.88-.87H15a.88.88,0,0,1,.87.87Zm5.22,0a.88.88,0,0,1-.86.87H18.53a.88.88,0,0,1-.88-.87v-7a.89.89,0,0,1,.88-.87h1.74a.88.88,0,0,1,.86.87Z" transform="translate(-2 -0.26)"/><path class="cls-1" d="M26.34,7.22c-.08,0-1.6-1.74-3.46-1.74H19.4A5.07,5.07,0,0,0,14.17.26,5.07,5.07,0,0,0,9,5.48H5.48C3.61,5.48,2.09,7.22,2,7.22H2V10.7H26.35V7.22ZM11.68,5.47A2.51,2.51,0,0,1,14.18,3a2.46,2.46,0,0,1,2.39,2.5Z" transform="translate(-2 -0.26)"/></svg>