<svg id="Layer_1" data-name="Layer 1" xmlns="http://www.w3.org/2000/svg" viewBox="0 0 49.25 49.25"><defs><style>.cls-1{fill:#fff;}</style></defs><path class="cls-1" d="M28.35,5.16A24.62,24.62,0,1,0,53,29.78,24.63,24.63,0,0,0,28.35,5.16ZM42.06,41.74a2,2,0,0,1-2,2H16.61a2,2,0,0,1-2-2V18.05a2,2,0,0,1,2-2H40a2,2,0,0,1,2,2V41.74Z" transform="translate(-3.72 -5.16)"/><path class="cls-1" d="M33.1,26.44a4.12,4.12,0,0,0-3.74,2.06v0h0l0,0V26.73H25.21c.05,1.17,0,12.49,0,12.49h4.15v-7a2.86,2.86,0,0,1,.14-1,2.27,2.27,0,0,1,2.12-1.52c1.51,0,2.11,1.15,2.11,2.83v6.68h4.15V32.06C37.88,28.22,35.83,26.44,33.1,26.44Z" transform="translate(-3.72 -5.16)"/><path class="cls-1" d="M20.86,20.71A2.17,2.17,0,1,0,20.81,25h0a2.17,2.17,0,1,0,0-4.32Z" transform="translate(-3.72 -5.16)"/><rect class="cls-1" x="15.04" y="21.58" width="4.15" height="12.48"/></svg>