<?xml version="1.0" encoding="utf-8"?>
<!-- Generator: Adobe Illustrator 16.0.0, SVG Export Plug-In . SVG Version: 6.00 Build 0)  -->
<!DOCTYPE svg PUBLIC "-//W3C//DTD SVG 1.1//EN" "http://www.w3.org/Graphics/SVG/1.1/DTD/svg11.dtd">
<svg version="1.1" id="Layer_1" xmlns="http://www.w3.org/2000/svg" xmlns:xlink="http://www.w3.org/1999/xlink" x="0px" y="0px"
	 width="56.693px" height="56.693px" viewBox="0 0 56.693 56.693" enable-background="new 0 0 56.693 56.693" xml:space="preserve">
<g>
	<path d="M42.452,29.968c-0.065-6.545,5.338-9.685,5.579-9.843c-3.036-4.44-7.767-5.049-9.45-5.118
		c-4.023-0.409-7.853,2.369-9.894,2.369c-2.036,0-5.189-2.31-8.524-2.251c-4.389,0.066-8.433,2.553-10.691,6.481
		c-4.557,7.905-1.165,19.621,3.275,26.038c2.171,3.135,4.76,6.664,8.156,6.535c3.273-0.129,4.509-2.117,8.466-2.117
		c3.957,0,5.069,2.117,8.531,2.051c3.521-0.064,5.752-3.196,7.906-6.345c2.491-3.644,3.518-7.171,3.578-7.35
		C49.308,40.383,42.522,37.782,42.452,29.968z"/>
	<path d="M35.945,10.761c1.802-2.187,3.022-5.226,2.69-8.25c-2.6,0.105-5.746,1.728-7.612,3.913
		c-1.671,1.938-3.134,5.025-2.742,7.995C31.18,14.643,34.138,12.943,35.945,10.761z"/>
</g>
</svg>
