<?xml version="1.0" encoding="utf-8"?>
<!-- Generator: Adobe Illustrator 16.0.0, SVG Export Plug-In . SVG Version: 6.00 Build 0)  -->
<!DOCTYPE svg PUBLIC "-//W3C//DTD SVG 1.1//EN" "http://www.w3.org/Graphics/SVG/1.1/DTD/svg11.dtd">
<svg version="1.1" id="Layer_1" xmlns="http://www.w3.org/2000/svg" xmlns:xlink="http://www.w3.org/1999/xlink" x="0px" y="0px"
	 width="56.693px" height="56.693px" viewBox="0 0 56.693 56.693" enable-background="new 0 0 56.693 56.693" xml:space="preserve">
<g>
	<g>
		<path d="M56.146,27.243c-0.504-0.562-12.622-13.779-27.8-13.779c-15.179,0-27.297,13.218-27.8,13.779
			c-0.562,0.629-0.562,1.578,0,2.206c0.503,0.562,12.623,13.78,27.801,13.78c15.178,0,27.295-13.219,27.801-13.78
			C56.708,28.821,56.708,27.872,56.146,27.243z M28.346,39.921c-6.382,0-11.577-5.191-11.577-11.575
			c0-6.382,5.194-11.576,11.577-11.576c6.381,0,11.575,5.193,11.575,11.576C39.922,34.729,34.727,39.921,28.346,39.921z"/>
	</g>
</g>
<g>
	<g>
		<path d="M29.699,25.751c0-1.305,0.647-2.453,1.634-3.159c-0.885-0.451-1.871-0.731-2.932-0.731c-3.576,0-6.486,2.909-6.486,6.486
			c0,3.576,2.91,6.486,6.486,6.486c3.202,0,5.853-2.338,6.377-5.393C32.165,30.28,29.699,28.305,29.699,25.751z"/>
	</g>
</g>
</svg>
