<svg id="圖層_1" data-name="圖層 1" xmlns="http://www.w3.org/2000/svg" viewBox="0 0 26.11 26.11"><defs><style>.cls-1{fill:#fff;}</style></defs><path class="cls-1" d="M10.23,3A10.78,10.78,0,0,0,8,4L6.07,2.61A.83.83,0,0,0,5,2.67L3.82,3.82,2.67,5a.81.81,0,0,0-.06,1.09L4,8A10.27,10.27,0,0,0,3,10.23l-2.31.38a.81.81,0,0,0-.73.81v3.27a.81.81,0,0,0,.73.81L3,15.88A10.19,10.19,0,0,0,4,18.12L2.61,20a.83.83,0,0,0,.06,1.1l1.15,1.15L5,23.44a.83.83,0,0,0,1.1.06L8,22.14a10.27,10.27,0,0,0,2.25.93l.39,2.31a.81.81,0,0,0,.81.73h3.27a.81.81,0,0,0,.81-.73l.38-2.31a10.19,10.19,0,0,0,2.24-.93L20,23.5a.81.81,0,0,0,1.09-.06l1.16-1.15,1.15-1.15a.83.83,0,0,0,.06-1.1l-1.37-1.9a10.71,10.71,0,0,0,.95-2.26l2.31-.39a.81.81,0,0,0,.73-.81V11.42a.81.81,0,0,0-.73-.81l-2.31-.39A10.22,10.22,0,0,0,22.13,8L23.5,6.07A.81.81,0,0,0,23.44,5L22.29,3.82,21.13,2.67A.81.81,0,0,0,20,2.61L18.13,4A11.35,11.35,0,0,0,15.88,3L15.49.73A.81.81,0,0,0,14.68,0H11.42a.81.81,0,0,0-.81.73Zm2.83,5.12a4.9,4.9,0,1,1-4.9,4.9,4.9,4.9,0,0,1,4.9-4.9Z" transform="translate(0 0)"/></svg>