<?xml version="1.0" encoding="utf-8"?>
<!-- Generator: Adobe Illustrator 16.0.0, SVG Export Plug-In . SVG Version: 6.00 Build 0)  -->
<!DOCTYPE svg PUBLIC "-//W3C//DTD SVG 1.1//EN" "http://www.w3.org/Graphics/SVG/1.1/DTD/svg11.dtd">
<svg version="1.1" id="圖層_1" xmlns="http://www.w3.org/2000/svg" xmlns:xlink="http://www.w3.org/1999/xlink" x="0px" y="0px"
	 width="100px" height="100px" viewBox="0 0 100 100" enable-background="new 0 0 100 100" xml:space="preserve">
<g id="圖層_2" display="none">
	<g display="inline">
		<circle fill="#3C579E" cx="50" cy="50" r="50"/>
		<path fill="#FFFFFF" d="M43.95,81.25V53.012H33.872V42.941h10.08v-9.294c0-9.375,5.535-14.897,13.897-14.897
			c4.006,0,7.275,0.428,8.279,0.562v10.529l-6.732-0.003c-4.547,0-5.397,2.256-5.397,5.427v7.678h11.653l-1.646,10.069H53.999V81.25
			H43.95z"/>
	</g>
</g>
<g id="圖層_3" display="none">
	<path display="inline" fill="#0E9FDB" d="M56.945,30.473c-4.365,1.588-7.125,5.683-6.812,10.167l0.105,1.73l-1.748-0.212
		c-6.354-0.811-11.906-3.563-16.622-8.192l-2.307-2.295l-0.593,1.695c-1.256,3.779-0.451,7.771,2.166,10.452
		c1.396,1.484,1.082,1.696-1.326,0.811c-0.84-0.28-1.572-0.491-1.644-0.388c-0.242,0.248,0.595,3.461,1.257,4.732
		c0.91,1.765,2.761,3.493,4.785,4.52l1.713,0.812l-2.025,0.034c-1.955,0-2.025,0.036-1.814,0.778
		c0.697,2.297,3.457,4.732,6.529,5.793l2.165,0.74l-1.885,1.129c-2.794,1.629-6.075,2.543-9.36,2.611
		c-1.572,0.035-2.864,0.178-2.864,0.282c0,0.354,4.261,2.329,6.739,3.108c7.438,2.295,16.275,1.304,22.912-2.614
		c4.713-2.789,9.428-8.333,11.627-13.701c1.188-2.857,2.377-8.085,2.377-10.591c0-1.625,0.104-1.837,2.062-3.777
		c1.152-1.129,2.233-2.366,2.445-2.718c0.348-0.672,0.312-0.672-1.47-0.072c-2.969,1.059-3.389,0.918-1.92-0.67
		c1.084-1.129,2.377-3.179,2.377-3.779c0-0.104-0.524,0.071-1.119,0.389c-0.629,0.354-2.025,0.884-3.073,1.2l-1.886,0.604
		l-1.711-1.168c-0.943-0.635-2.27-1.341-2.969-1.552C61.275,29.837,58.551,29.905,56.945,30.473z M50,100C22.387,100,0,77.613,0,50
		C0,22.386,22.387,0,50,0c27.613,0,50,22.386,50,50C100,77.613,77.613,100,50,100z"/>
</g>
<g id="圖層_4" display="none">
	<g display="inline">
		<circle fill="#C01E20" cx="50" cy="50" r="50"/>
	</g>
	<path display="inline" fill="#FFFFFF" d="M80.626,37.502c0,0-0.61-4.307-2.483-6.202c-2.377-2.49-5.041-2.502-6.264-2.648
		c-8.742-0.632-21.865-0.632-21.865-0.632h-0.029c0,0-13.121,0-21.864,0.632c-1.222,0.146-3.885,0.157-6.263,2.648
		c-1.874,1.896-2.484,6.202-2.484,6.202s-0.623,5.059-0.623,10.116v4.743c0,5.056,0.624,10.115,0.624,10.115s0.61,4.303,2.484,6.201
		c2.379,2.49,5.501,2.412,6.891,2.674c5.001,0.479,21.252,0.629,21.252,0.629s13.132-0.021,21.879-0.652
		c1.223-0.146,3.887-0.157,6.262-2.648c1.877-1.898,2.486-6.201,2.486-6.201s0.622-5.061,0.622-10.117v-4.742
		C81.25,42.561,80.626,37.502,80.626,37.502 M42.757,58.928l-0.002-19.204l18.468,9.635L42.757,58.928z"/>
</g>
<g id="圖層_5" display="none">
	<g display="inline">
		<circle fill="#D45141" cx="50" cy="50" r="50"/>
		<g>
			<g>
				<path fill="#FFFFFF" d="M38.612,76.465c-14.857,0-26.946-11.869-26.946-26.464c0-14.594,12.088-26.465,26.946-26.465
					c6.499,0,12.777,2.306,17.675,6.491l-6.852,7.733c-2.998-2.562-6.842-3.974-10.823-3.974c-9.104,0-16.508,7.274-16.508,16.213
					c0,8.938,7.406,16.211,16.508,16.211c7.702,0,12.744-3.688,14.381-10.312H38.74v-10.25h25.271v5.126
					C64.012,66.141,53.805,76.465,38.612,76.465z"/>
			</g>
			<polygon fill="#FFFFFF" points="92.137,45.654 84.322,45.654 84.322,37.842 78.072,37.842 78.072,45.654 70.262,45.654 
				70.262,51.904 78.072,51.904 78.072,59.717 84.322,59.717 84.322,51.904 92.137,51.904 			"/>
		</g>
	</g>
</g>
<g id="圖層_6" display="none">
	<g display="inline">
		<circle fill="#1070A8" cx="50" cy="50" r="50"/>
	</g>
	<g display="inline">
		<path fill="#FFFFFF" d="M34.468,78.072H22.8V40.57h11.668V78.072z M28.638,35.446c-3.744,0-6.763-3.028-6.763-6.761
			c0-3.729,3.019-6.759,6.763-6.759c3.727,0,6.754,3.028,6.754,6.759C35.393,32.418,32.365,35.446,28.638,35.446z M78.125,78.072
			H66.471V59.836c0-4.35-0.076-9.944-6.058-9.944c-6.065,0-6.99,4.738-6.99,9.633v18.549H41.78V40.57h11.172v5.127h0.161
			c1.555-2.949,5.355-6.058,11.027-6.058c11.801,0,13.981,7.765,13.981,17.866L78.125,78.072L78.125,78.072z"/>
	</g>
</g>
<g id="圖層_7" display="none">
	<g display="inline">
		<g>
			
				<linearGradient id="SVGID_1_" gradientUnits="userSpaceOnUse" x1="-325.126" y1="170.8984" x2="-267.7639" y2="252.82" gradientTransform="matrix(1 0 0 -1 346.4448 261.8594)">
				<stop  offset="0" style="stop-color:#FFB900"/>
				<stop  offset="1" style="stop-color:#9100EB"/>
			</linearGradient>
			<circle fill="url(#SVGID_1_)" cx="50" cy="50" r="50"/>
		</g>
		<g>
			<g>
				<path fill="#FFFFFF" d="M64.322,81.25H35.678c-9.333,0-16.928-7.594-16.928-16.928V35.678c0-9.335,7.595-16.928,16.928-16.928
					h28.644c9.336,0,16.929,7.593,16.929,16.928v28.646C81.25,73.656,73.657,81.25,64.322,81.25z M35.678,23.958
					c-6.462,0-11.719,5.257-11.719,11.719v28.645c0,6.463,5.257,11.72,11.719,11.72h28.644c6.463,0,11.72-5.257,11.72-11.72V35.678
					c0-6.462-5.257-11.719-11.72-11.719L35.678,23.958L35.678,23.958z"/>
			</g>
			<g>
				<path fill="#FFFFFF" d="M50,65.625c-8.615,0-15.625-7.01-15.625-15.625c0-8.616,7.01-15.625,15.625-15.625
					S65.625,41.384,65.625,50C65.625,58.615,58.615,65.625,50,65.625z M50,39.584c-5.743,0-10.416,4.673-10.416,10.416
					c0,5.745,4.673,10.416,10.416,10.416S60.416,55.745,60.416,50C60.416,44.257,55.745,39.584,50,39.584z"/>
			</g>
			<g>
				<circle fill="#FFFFFF" cx="66.602" cy="33.398" r="3.58"/>
			</g>
		</g>
	</g>
</g>
<g>
	<path fill="#FFFFFF" d="M84.106,29.521H15.894c-3.426,0-6.201,2.775-6.201,6.202v27.906c0,3.426,2.775,6.201,6.201,6.201h5.553
		v12.402c0,2.07,1.679,3.75,3.75,3.75h49.607c2.072,0,3.75-1.68,3.75-3.75V69.83h5.553c3.426,0,6.201-2.775,6.201-6.201V35.723
		C90.308,32.296,87.532,29.521,84.106,29.521z M71.054,78.48H28.945V48.774h42.108V78.48z"/>
	<path fill="#FFFFFF" d="M77.905,17.119c0-1.711-1.389-3.101-3.102-3.101H25.196c-1.713,0-3.102,1.39-3.102,3.101v6.201h55.811
		V17.119z"/>
</g>
</svg>
