<?xml version="1.0" encoding="utf-8"?>
<!-- Generator: Adobe Illustrator 25.2.3, SVG Export Plug-In . SVG Version: 6.00 Build 0)  -->
<svg version="1.1" id="圖層_1" xmlns="http://www.w3.org/2000/svg" xmlns:xlink="http://www.w3.org/1999/xlink" x="0px" y="0px"
	 viewBox="0 0 100 100" style="enable-background:new 0 0 100 100;" xml:space="preserve">
<style type="text/css">
	.st0{display:none;}
	.st1{display:inline;fill:#2BAB38;}
	.st2{display:inline;fill:#FFFFFF;}
	.st3{display:inline;fill:#0E9FDB;}
	.st4{display:inline;}
	.st5{fill:#C01E20;}
	.st6{fill:#D45141;}
	.st7{fill:#FFFFFF;}
	.st8{fill:#1070A8;}
	.st9{fill:url(#SVGID_1_);}
</style>
<g id="圖層_1_1_" class="st0">
	<path class="st1" d="M81.7,0.1H18.2C8.2,0.1,0,8.1,0,18.1v63.5c0,10,8.1,18.2,18,18.2h63.5c10,0,18.2-8.1,18.2-18V18.3
		C99.8,8.3,91.7,0.1,81.7,0.1"/>
	<path class="st2" d="M86.1,45.6c0-16.3-16.3-29.5-36.3-29.5c-20,0-36.3,13.2-36.3,29.5c0,14.6,12.9,26.8,30.4,29.1
		c1.2,0.3,2.8,0.8,3.2,1.8c0.4,0.9,0.2,2.4,0.1,3.3c0,0-0.4,2.6-0.5,3.1c-0.2,0.9-0.7,3.6,3.1,2c3.9-1.6,20.9-12.3,28.5-21.1l0,0
		C83.5,57.9,86.1,52.1,86.1,45.6"/>
	<path class="st1" d="M42.3,37.7h-2.5c-0.4,0-0.7,0.3-0.7,0.7v15.8c0,0.4,0.3,0.7,0.7,0.7h2.5c0.4,0,0.7-0.3,0.7-0.7V38.4
		C43.1,38,42.7,37.7,42.3,37.7"/>
	<path class="st1" d="M59.9,37.7h-2.5c-0.4,0-0.7,0.3-0.7,0.7v9.4L49.4,38c0,0,0,0-0.1-0.1l0,0c0,0,0,0,0,0c0,0,0,0,0,0c0,0,0,0,0,0
		c0,0,0,0,0,0c0,0,0,0,0,0c0,0,0,0,0,0c0,0,0,0,0,0c0,0,0,0,0,0c0,0,0,0,0,0c0,0,0,0,0,0c0,0,0,0,0,0c0,0,0,0,0,0c0,0,0,0,0,0
		c0,0,0,0,0,0c0,0,0,0,0,0c0,0,0,0,0,0c0,0,0,0,0,0h-2.5c-0.4,0-0.7,0.3-0.7,0.7v15.8c0,0.4,0.3,0.7,0.7,0.7h2.5
		c0.4,0,0.7-0.3,0.7-0.7v-9.4l7.3,9.8c0,0.1,0.1,0.1,0.2,0.2c0,0,0,0,0,0c0,0,0,0,0,0c0,0,0,0,0,0c0,0,0,0,0,0s0,0,0,0c0,0,0,0,0,0
		c0,0,0,0,0,0c0,0,0,0,0,0c0.1,0,0.1,0,0.2,0h2.5c0.4,0,0.7-0.3,0.7-0.7V38.4C60.6,38,60.3,37.7,59.9,37.7"/>
	<path class="st1" d="M36.2,51h-6.9V38.4c0-0.4-0.3-0.7-0.7-0.7H26c-0.4,0-0.7,0.3-0.7,0.7v15.8v0c0,0.2,0.1,0.4,0.2,0.5
		c0,0,0,0,0,0c0,0,0,0,0,0c0.1,0.1,0.3,0.2,0.5,0.2l0,0h10.2c0.4,0,0.7-0.3,0.7-0.7v-2.5C36.9,51.3,36.6,51,36.2,51"/>
	<path class="st1" d="M74,41.7c0.4,0,0.7-0.3,0.7-0.7v-2.5c0-0.4-0.3-0.7-0.7-0.7H63.8h0c-0.2,0-0.4,0.1-0.5,0.2c0,0,0,0,0,0
		c0,0,0,0,0,0c-0.1,0.1-0.2,0.3-0.2,0.5l0,0v15.8v0c0,0.2,0.1,0.4,0.2,0.5c0,0,0,0,0,0c0,0,0,0,0,0c0.1,0.1,0.3,0.2,0.5,0.2h0H74
		c0.4,0,0.7-0.3,0.7-0.7v-2.5c0-0.4-0.3-0.7-0.7-0.7H67v-2.7H74c0.4,0,0.7-0.3,0.7-0.7v-2.5c0-0.4-0.3-0.7-0.7-0.7H67v-2.7H74z"/>
</g>
<g id="圖層_3" class="st0">
	<path class="st3" d="M56.9,30.5c-4.4,1.6-7.1,5.7-6.8,10.2l0.1,1.7l-1.7-0.2c-6.4-0.8-11.9-3.6-16.6-8.2l-2.3-2.3L29,33.4
		c-1.3,3.8-0.5,7.8,2.2,10.5c1.4,1.5,1.1,1.7-1.3,0.8c-0.8-0.3-1.6-0.5-1.6-0.4c-0.2,0.2,0.6,3.5,1.3,4.7c0.9,1.8,2.8,3.5,4.8,4.5
		l1.7,0.8l-2,0c-2,0-2,0-1.8,0.8c0.7,2.3,3.5,4.7,6.5,5.8l2.2,0.7l-1.9,1.1c-2.8,1.6-6.1,2.5-9.4,2.6c-1.6,0-2.9,0.2-2.9,0.3
		c0,0.4,4.3,2.3,6.7,3.1c7.4,2.3,16.3,1.3,22.9-2.6c4.7-2.8,9.4-8.3,11.6-13.7c1.2-2.9,2.4-8.1,2.4-10.6c0-1.6,0.1-1.8,2.1-3.8
		c1.2-1.1,2.2-2.4,2.4-2.7c0.3-0.7,0.3-0.7-1.5-0.1c-3,1.1-3.4,0.9-1.9-0.7c1.1-1.1,2.4-3.2,2.4-3.8c0-0.1-0.5,0.1-1.1,0.4
		c-0.6,0.4-2,0.9-3.1,1.2l-1.9,0.6L66,31.9c-0.9-0.6-2.3-1.3-3-1.6C61.3,29.8,58.6,29.9,56.9,30.5z M50,100C22.4,100,0,77.6,0,50
		S22.4,0,50,0c27.6,0,50,22.4,50,50S77.6,100,50,100z"/>
</g>
<g id="圖層_4" class="st0">
	<g class="st4">
		<circle class="st5" cx="50" cy="50" r="50"/>
	</g>
	<path class="st2" d="M80.6,37.5c0,0-0.6-4.3-2.5-6.2c-2.4-2.5-5-2.5-6.3-2.6C63.1,28,50,28,50,28h0c0,0-13.1,0-21.9,0.6
		c-1.2,0.1-3.9,0.2-6.3,2.6c-1.9,1.9-2.5,6.2-2.5,6.2s-0.6,5.1-0.6,10.1v4.7c0,5.1,0.6,10.1,0.6,10.1s0.6,4.3,2.5,6.2
		c2.4,2.5,5.5,2.4,6.9,2.7C33.8,71.8,50,72,50,72s13.1,0,21.9-0.7c1.2-0.1,3.9-0.2,6.3-2.6c1.9-1.9,2.5-6.2,2.5-6.2
		s0.6-5.1,0.6-10.1v-4.7C81.2,42.6,80.6,37.5,80.6,37.5 M42.8,58.9l0-19.2l18.5,9.6L42.8,58.9z"/>
</g>
<g id="圖層_5" class="st0">
	<g class="st4">
		<circle class="st6" cx="50" cy="50" r="50"/>
		<g>
			<g>
				<path class="st7" d="M38.6,76.5c-14.9,0-26.9-11.9-26.9-26.5s12.1-26.5,26.9-26.5c6.5,0,12.8,2.3,17.7,6.5l-6.9,7.7
					c-3-2.6-6.8-4-10.8-4c-9.1,0-16.5,7.3-16.5,16.2s7.4,16.2,16.5,16.2c7.7,0,12.7-3.7,14.4-10.3H38.7V45.6H64v5.1
					C64,66.1,53.8,76.5,38.6,76.5z"/>
			</g>
			<polygon class="st7" points="92.1,45.7 84.3,45.7 84.3,37.8 78.1,37.8 78.1,45.7 70.3,45.7 70.3,51.9 78.1,51.9 78.1,59.7 
				84.3,59.7 84.3,51.9 92.1,51.9 			"/>
		</g>
	</g>
</g>
<g id="圖層_6" class="st0">
	<g class="st4">
		<circle class="st8" cx="50" cy="50" r="50"/>
	</g>
	<g class="st4">
		<path class="st7" d="M34.5,78.1H22.8V40.6h11.7V78.1z M28.6,35.4c-3.7,0-6.8-3-6.8-6.8c0-3.7,3-6.8,6.8-6.8c3.7,0,6.8,3,6.8,6.8
			C35.4,32.4,32.4,35.4,28.6,35.4z M78.1,78.1H66.5V59.8c0-4.3-0.1-9.9-6.1-9.9c-6.1,0-7,4.7-7,9.6v18.5H41.8V40.6H53v5.1h0.2
			c1.6-2.9,5.4-6.1,11-6.1c11.8,0,14,7.8,14,17.9L78.1,78.1L78.1,78.1z"/>
	</g>
</g>
<g id="圖層_7" class="st0">
	<g class="st4">
		<g>
			
				<linearGradient id="SVGID_1_" gradientUnits="userSpaceOnUse" x1="-325.1813" y1="171.0389" x2="-267.8187" y2="252.9611" gradientTransform="matrix(1 0 0 -1 346.5 262)">
				<stop  offset="0" style="stop-color:#FFB900"/>
				<stop  offset="1" style="stop-color:#9100EB"/>
			</linearGradient>
			<circle class="st9" cx="50" cy="50" r="50"/>
		</g>
		<g>
			<g>
				<path class="st7" d="M64.3,81.2H35.7c-9.3,0-16.9-7.6-16.9-16.9V35.7c0-9.3,7.6-16.9,16.9-16.9h28.6c9.3,0,16.9,7.6,16.9,16.9
					v28.6C81.2,73.7,73.7,81.2,64.3,81.2z M35.7,24C29.2,24,24,29.2,24,35.7v28.6C24,70.8,29.2,76,35.7,76h28.6
					C70.8,76,76,70.8,76,64.3V35.7C76,29.2,70.8,24,64.3,24L35.7,24L35.7,24z"/>
			</g>
			<g>
				<path class="st7" d="M50,65.6c-8.6,0-15.6-7-15.6-15.6c0-8.6,7-15.6,15.6-15.6s15.6,7,15.6,15.6C65.6,58.6,58.6,65.6,50,65.6z
					 M50,39.6c-5.7,0-10.4,4.7-10.4,10.4c0,5.7,4.7,10.4,10.4,10.4S60.4,55.7,60.4,50C60.4,44.3,55.7,39.6,50,39.6z"/>
			</g>
			<g>
				<circle class="st7" cx="66.6" cy="33.4" r="3.6"/>
			</g>
		</g>
	</g>
</g>
<path d="M46.9,43.3l6.9-4.2c3.7-2.2,8.3-2.8,12.4-1.2c2.4,0.9,5.1,1.2,7.9,0.7c5.6-1.1,10.2-5.6,11.3-11.2
	c2-10.1-6.6-18.9-16.6-17.2c-5.4,0.9-9.8,4.9-11.4,10.1c-0.2,0.8-0.4,1.6-0.5,2.4c-0.5,4.3-3.3,8.1-7,10.3l-4.2,2.5
	c-3.6,2.2-8,2.3-12,0.9c-1.5-0.6-3.2-0.9-5-0.9c-8.9,0-16,8.2-14.1,17.4c1.1,5.6,5.7,10.1,11.3,11.2c2.8,0.5,5.5,0.2,7.9-0.7
	c4.1-1.5,8.6-1,12.4,1.2l6.9,4.2c2.3,1.4,3.8,3.9,3.8,6.7v0c0,8.9,8.1,16,17.4,14.2c5.6-1.1,10.1-5.6,11.2-11.2
	c1.8-9.2-5.2-17.4-14.2-17.4c-1.8,0-3.4,0.3-5,0.9c-4,1.5-8.4,1.3-12-0.9l-7.5-4.5c-2.3-1.4-3.7-3.9-3.7-6.6v0v0
	C43.1,47.3,44.5,44.7,46.9,43.3z"/>
</svg>
