<?xml version="1.0" encoding="utf-8"?>
<!-- Generator: Adobe Illustrator 16.0.0, SVG Export Plug-In . SVG Version: 6.00 Build 0)  -->
<!DOCTYPE svg PUBLIC "-//W3C//DTD SVG 1.1//EN" "http://www.w3.org/Graphics/SVG/1.1/DTD/svg11.dtd">
<svg version="1.1" id="圖層_1" xmlns:sketch="http://www.bohemiancoding.com/sketch/ns"
	 xmlns="http://www.w3.org/2000/svg" xmlns:xlink="http://www.w3.org/1999/xlink" x="0px" y="0px" width="32px" height="32px"
	 viewBox="0 0 32 32" enable-background="new 0 0 32 32" xml:space="preserve">
<title></title>
<g id="Icons_new_Arranged_Names">
	<g id="_x31_01_Warning">
		<path id="Triangle_29" fill="#CE5605" d="M14.168,4.48c1.012-1.639,2.656-1.634,3.666,0l12.553,20.307
			c1.352,2.187,0.366,3.96-2.2,3.96H3.814c-2.566,0-3.555-1.767-2.198-3.96L14.168,4.48z M16.002,20.601
			c0.644,0,1.163-0.527,1.163-1.161v-6.989c0-0.641-0.516-1.161-1.163-1.161c-0.643,0-1.164,0.528-1.164,1.161v6.989
			C14.838,20.08,15.354,20.601,16.002,20.601z M16.002,25.255c0.644,0,1.163-0.52,1.163-1.163s-0.52-1.164-1.163-1.164
			c-0.643,0-1.164,0.521-1.164,1.164S15.359,25.255,16.002,25.255z"/>
	</g>
</g>
</svg>
