<?xml version="1.0" encoding="utf-8"?>
<!-- Generator: Adobe Illustrator 16.0.0, SVG Export Plug-In . SVG Version: 6.00 Build 0)  -->
<!DOCTYPE svg PUBLIC "-//W3C//DTD SVG 1.1//EN" "http://www.w3.org/Graphics/SVG/1.1/DTD/svg11.dtd">
<svg version="1.1" xmlns="http://www.w3.org/2000/svg" xmlns:xlink="http://www.w3.org/1999/xlink" x="0px" y="0px" width="100px"
	 height="100px" viewBox="0 0 100 100" enable-background="new 0 0 100 100" xml:space="preserve">
<g id="圖層_1" display="none">
	<path display="inline" fill="#2BAB38" d="M81.727,0.083H18.185C8.208,0.07,0.015,8.15,0,18.13v63.543
		c-0.013,9.98,8.067,18.174,18.046,18.188h63.542c9.979,0.013,18.17-8.066,18.185-18.048V18.269
		C99.788,8.289,91.709,0.098,81.727,0.083"/>
	<path display="inline" fill="#FFFFFF" d="M86.052,45.585c0-16.255-16.296-29.479-36.328-29.479
		c-20.028,0-36.326,13.225-36.326,29.479c0,14.573,12.923,26.776,30.38,29.085c1.183,0.254,2.794,0.78,3.201,1.791
		c0.366,0.918,0.239,2.357,0.117,3.284c0,0-0.426,2.563-0.518,3.11c-0.16,0.918-0.73,3.592,3.145,1.957
		c3.878-1.634,20.921-12.317,28.542-21.09l0,0C83.529,57.948,86.052,52.091,86.052,45.585"/>
	<path display="inline" fill="#2BAB38" d="M42.344,37.73h-2.547c-0.391,0-0.709,0.317-0.709,0.706v15.829
		c0,0.39,0.318,0.707,0.709,0.707h2.547c0.391,0,0.708-0.317,0.708-0.707V38.436C43.052,38.047,42.734,37.73,42.344,37.73"/>
	<path display="inline" fill="#2BAB38" d="M59.883,37.73h-2.548c-0.392,0-0.708,0.317-0.708,0.706v9.404l-7.254-9.796
		c-0.016-0.025-0.036-0.049-0.054-0.071l-0.005-0.005c-0.015-0.016-0.027-0.029-0.042-0.044c-0.005-0.004-0.01-0.007-0.015-0.011
		c-0.012-0.011-0.024-0.022-0.038-0.032c-0.005-0.005-0.011-0.009-0.018-0.015c-0.013-0.008-0.024-0.017-0.037-0.025
		c-0.007-0.005-0.013-0.009-0.021-0.013c-0.013-0.007-0.024-0.015-0.037-0.021c-0.008-0.003-0.015-0.008-0.023-0.01
		c-0.013-0.006-0.026-0.012-0.039-0.018c-0.01-0.002-0.016-0.005-0.024-0.008c-0.013-0.005-0.028-0.01-0.042-0.013
		c-0.006-0.003-0.016-0.004-0.024-0.007c-0.013-0.003-0.026-0.006-0.041-0.009c-0.01-0.001-0.02-0.002-0.029-0.003
		c-0.013-0.003-0.024-0.004-0.037-0.005c-0.012-0.001-0.024-0.001-0.036-0.002c-0.01,0-0.016-0.001-0.026-0.001h-2.546
		c-0.39,0-0.709,0.317-0.709,0.706v15.829c0,0.39,0.319,0.707,0.709,0.707h2.546c0.392,0,0.709-0.317,0.709-0.707v-9.401
		l7.263,9.809c0.049,0.07,0.11,0.129,0.179,0.175c0.002,0.001,0.005,0.003,0.007,0.005c0.015,0.009,0.029,0.019,0.044,0.026
		c0.007,0.005,0.013,0.007,0.02,0.011c0.012,0.006,0.022,0.012,0.034,0.017s0.022,0.01,0.036,0.016
		c0.006,0.002,0.013,0.005,0.02,0.007c0.018,0.006,0.032,0.011,0.049,0.016c0.003,0,0.006,0.002,0.01,0.003
		c0.059,0.015,0.118,0.024,0.182,0.024h2.548c0.391,0,0.708-0.317,0.708-0.707V38.436C60.591,38.047,60.273,37.73,59.883,37.73"/>
	<path display="inline" fill="#2BAB38" d="M36.202,51.008h-6.923v-12.57c0-0.391-0.317-0.708-0.707-0.708h-2.549
		c-0.391,0-0.708,0.317-0.708,0.708v15.825v0.002c0,0.19,0.076,0.362,0.198,0.488c0.003,0.004,0.006,0.008,0.01,0.011
		c0.003,0.004,0.006,0.007,0.01,0.01c0.127,0.123,0.298,0.198,0.489,0.198h0h10.179c0.391,0,0.707-0.318,0.707-0.709v-2.548
		C36.908,51.324,36.593,51.008,36.202,51.008"/>
	<path display="inline" fill="#2BAB38" d="M73.953,41.693c0.391,0,0.706-0.316,0.706-0.708v-2.548c0-0.391-0.315-0.708-0.706-0.708
		H63.774h-0.001c-0.19,0-0.363,0.077-0.49,0.2c-0.003,0.002-0.006,0.004-0.008,0.007c-0.005,0.004-0.008,0.009-0.012,0.013
		c-0.122,0.127-0.196,0.298-0.196,0.488v0v15.826v0.001c0,0.19,0.076,0.362,0.198,0.488c0.003,0.004,0.007,0.008,0.01,0.011
		c0.002,0.004,0.007,0.007,0.01,0.01c0.127,0.122,0.299,0.198,0.488,0.198h0.001h10.179c0.391,0,0.706-0.318,0.706-0.708v-2.549
		c0-0.39-0.315-0.707-0.706-0.707H67.03v-2.675h6.923c0.391,0,0.706-0.317,0.706-0.708v-2.548c0-0.391-0.315-0.708-0.706-0.708
		H67.03v-2.675H73.953z"/>
</g>
<g id="圖層_2" display="none">
	<g display="inline">
		<circle fill="#3C579E" cx="50" cy="50" r="50"/>
		<path fill="#FFFFFF" d="M43.95,81.25V53.011H33.872V42.941h10.08v-9.294c0-9.375,5.535-14.897,13.897-14.897
			c4.007,0,7.276,0.428,8.28,0.562v10.529l-6.732-0.003c-4.547,0-5.398,2.256-5.398,5.427v7.678h11.653l-1.646,10.068H53.999V81.25
			H43.95z"/>
	</g>
</g>
<g id="圖層_3" display="none">
	<path display="inline" fill="#0E9FDB" d="M56.945,30.473c-4.365,1.588-7.125,5.683-6.811,10.167l0.105,1.73l-1.748-0.212
		c-6.354-0.811-11.906-3.563-16.622-8.192l-2.307-2.295l-0.593,1.695c-1.256,3.779-0.451,7.771,2.166,10.452
		c1.396,1.484,1.082,1.696-1.326,0.811c-0.84-0.28-1.572-0.491-1.644-0.388c-0.242,0.248,0.595,3.461,1.257,4.732
		c0.91,1.766,2.761,3.493,4.785,4.52l1.713,0.812l-2.025,0.034c-1.955,0-2.025,0.036-1.814,0.778
		c0.697,2.297,3.457,4.733,6.529,5.793l2.165,0.74l-1.885,1.129c-2.794,1.629-6.075,2.543-9.36,2.612
		c-1.572,0.035-2.864,0.177-2.864,0.282c0,0.354,4.261,2.329,6.739,3.108c7.438,2.295,16.275,1.304,22.911-2.614
		c4.714-2.789,9.428-8.333,11.628-13.701c1.188-2.857,2.377-8.085,2.377-10.591c0-1.625,0.104-1.837,2.061-3.777
		c1.152-1.129,2.233-2.366,2.445-2.718c0.348-0.672,0.312-0.672-1.469-0.072c-2.969,1.059-3.389,0.918-1.921-0.67
		c1.084-1.129,2.377-3.179,2.377-3.779c0-0.104-0.524,0.071-1.119,0.389c-0.628,0.354-2.025,0.884-3.073,1.2l-1.886,0.603
		l-1.71-1.168c-0.944-0.635-2.27-1.341-2.969-1.552C61.276,29.837,58.551,29.905,56.945,30.473z M50,100C22.387,100,0,77.614,0,50
		S22.387,0,50,0c27.614,0,50,22.386,50,50S77.614,100,50,100z"/>
</g>
<g id="圖層_4" display="none">
	<g display="inline">
		<circle fill="#C01E20" cx="50" cy="50" r="50"/>
	</g>
	<path display="inline" fill="#FFFFFF" d="M80.626,37.502c0,0-0.61-4.307-2.484-6.202c-2.377-2.49-5.041-2.502-6.263-2.648
		c-8.742-0.632-21.865-0.632-21.865-0.632h-0.029c0,0-13.121,0-21.864,0.632c-1.222,0.146-3.885,0.157-6.263,2.648
		c-1.874,1.896-2.484,6.202-2.484,6.202s-0.623,5.059-0.623,10.116v4.743c0,5.056,0.624,10.115,0.624,10.115s0.61,4.304,2.484,6.201
		c2.379,2.491,5.501,2.413,6.891,2.674c5.001,0.479,21.252,0.629,21.252,0.629s13.132-0.02,21.879-0.652
		c1.222-0.146,3.886-0.157,6.262-2.648c1.876-1.899,2.486-6.202,2.486-6.202s0.622-5.06,0.622-10.116v-4.743
		C81.25,42.561,80.626,37.502,80.626,37.502 M42.757,58.927l-0.002-19.203l18.467,9.635L42.757,58.927z"/>
</g>
<g id="圖層_5" display="none">
	<g display="inline">
		<circle fill="#D45141" cx="50" cy="50" r="50"/>
		<g>
			<g>
				<path fill="#FFFFFF" d="M38.612,76.465c-14.857,0-26.946-11.87-26.946-26.464s12.088-26.465,26.946-26.465
					c6.499,0,12.776,2.306,17.675,6.491l-6.852,7.733c-2.998-2.562-6.842-3.974-10.823-3.974c-9.104,0-16.508,7.274-16.508,16.213
					s7.406,16.211,16.508,16.211c7.702,0,12.743-3.689,14.381-10.311H38.74V45.649h25.271v5.127
					C64.011,66.14,53.804,76.465,38.612,76.465z"/>
			</g>
			<polygon fill="#FFFFFF" points="92.136,45.654 84.323,45.654 84.323,37.842 78.073,37.842 78.073,45.654 70.261,45.654 
				70.261,51.904 78.073,51.904 78.073,59.717 84.323,59.717 84.323,51.904 92.136,51.904 			"/>
		</g>
	</g>
</g>
<g id="圖層_6" display="none">
	<g display="inline">
		<circle fill="#1070A8" cx="50" cy="50" r="50"/>
	</g>
	<g display="inline">
		<path fill="#FFFFFF" d="M34.468,78.073H22.8V40.57h11.668V78.073z M28.638,35.446c-3.744,0-6.763-3.028-6.763-6.761
			c0-3.729,3.019-6.759,6.763-6.759c3.727,0,6.754,3.028,6.754,6.759C35.393,32.418,32.365,35.446,28.638,35.446z M78.125,78.073
			H66.47V59.836c0-4.349-0.075-9.944-6.057-9.944c-6.065,0-6.99,4.738-6.99,9.633v18.549H41.78V40.57h11.172v5.127h0.161
			c1.555-2.949,5.356-6.058,11.028-6.058c11.801,0,13.981,7.765,13.981,17.866L78.125,78.073L78.125,78.073z"/>
	</g>
</g>
<g id="圖層_7">
	<g>
		<g>
			
				<linearGradient id="SVGID_1_" gradientUnits="userSpaceOnUse" x1="-325.1812" y1="-71.0391" x2="-267.8185" y2="-152.9615" gradientTransform="matrix(1 0 0 1 346.5 162)">
				<stop  offset="0" style="stop-color:#FFB900"/>
				<stop  offset="1" style="stop-color:#9100EB"/>
			</linearGradient>
			<circle fill="url(#SVGID_1_)" cx="50" cy="50" r="50"/>
		</g>
		<g>
			<g>
				<path fill="#FFFFFF" d="M64.322,81.25H35.678c-9.333,0-16.928-7.593-16.928-16.928V35.678c0-9.335,7.595-16.928,16.928-16.928
					h28.645c9.335,0,16.928,7.593,16.928,16.928v28.646C81.25,73.657,73.657,81.25,64.322,81.25z M35.678,23.958
					c-6.462,0-11.719,5.257-11.719,11.719v28.646c0,6.462,5.257,11.719,11.719,11.719h28.645c6.462,0,11.719-5.257,11.719-11.719
					V35.678c0-6.462-5.257-11.719-11.719-11.719H35.678z"/>
			</g>
			<g>
				<path fill="#FFFFFF" d="M50,65.625c-8.615,0-15.625-7.01-15.625-15.625c0-8.616,7.01-15.625,15.625-15.625
					S65.625,41.384,65.625,50C65.625,58.615,58.615,65.625,50,65.625z M50,39.584c-5.743,0-10.416,4.673-10.416,10.416
					c0,5.745,4.673,10.416,10.416,10.416S60.416,55.745,60.416,50C60.416,44.257,55.745,39.584,50,39.584z"/>
			</g>
			<g>
				<circle fill="#FFFFFF" cx="66.602" cy="33.398" r="3.58"/>
			</g>
		</g>
	</g>
</g>
</svg>
