<?xml version="1.0" encoding="utf-8"?>
<!-- Generator: Adobe Illustrator 25.2.3, SVG Export Plug-In . SVG Version: 6.00 Build 0)  -->
<svg version="1.1" id="圖層_1" xmlns:sketch="http://www.bohemiancoding.com/sketch/ns"
	 xmlns="http://www.w3.org/2000/svg" xmlns:xlink="http://www.w3.org/1999/xlink" x="0px" y="0px" viewBox="0 0 32 32"
	 style="enable-background:new 0 0 32 32;" xml:space="preserve">
<style type="text/css">
	.st0{fill:#C23E00;}
</style>
<g id="Icons_new_Arranged_Names">
	<g id="_x31_01_Warning">
		<path id="Triangle_29" class="st0" d="M14.2,4.5c1-1.6,2.7-1.6,3.7,0l12.6,20.3c1.4,2.2,0.4,4-2.2,4H3.8c-2.6,0-3.6-1.8-2.2-4
			L14.2,4.5z M16,20.6c0.6,0,1.2-0.5,1.2-1.2v-7c0-0.6-0.5-1.2-1.2-1.2c-0.6,0-1.2,0.5-1.2,1.2v7C14.8,20.1,15.4,20.6,16,20.6z
			 M16,25.3c0.6,0,1.2-0.5,1.2-1.2s-0.5-1.2-1.2-1.2s-1.2,0.5-1.2,1.2S15.4,25.3,16,25.3z"/>
	</g>
</g>
</svg>
