<?xml version="1.0" encoding="utf-8"?>
<!-- Generator: Adobe Illustrator 26.0.0, SVG Export Plug-In . SVG Version: 6.00 Build 0)  -->
<svg version="1.1" id="Layer_1" xmlns="http://www.w3.org/2000/svg" xmlns:xlink="http://www.w3.org/1999/xlink" x="0px" y="0px"
	 viewBox="0 0 85 85" style="enable-background:new 0 0 85 85;" xml:space="preserve">
<g>
	<path d="M49.2,54.4c-1.3-1.1-2.5-2.4-3.9-3.8c-1-1.1-2.1-2.6-3-4.2c1.7-5.8,2.5-11.4,0.7-14c-0.8-1.3-2.1-1.9-3.7-1.9
		c-1.8,0-3.1,0.8-3.8,2.3c-1.4,3.2,0.7,9.1,3.3,14c-0.7,2.3-1.6,4.8-2.7,7.6c-0.6,1.5-1.3,3-2.1,4.5c-7.3,2.9-11.8,6.1-12.4,9.1
		c-0.3,1.4,0.2,2.7,1.4,3.7c0.7,0.5,1.5,0.9,2.4,0.9c0.4,0,0.7-0.1,1.1-0.2c3.4-0.9,7.1-5.9,9.8-11c1.6-0.6,3.5-1.3,5.5-1.8
		c2.4-0.7,4.6-1.3,6.4-1.6c3.5,2.8,6.4,4.3,9,4.3c2,0.1,3.4-0.6,4.7-2c2-2,1.2-3.7,0.9-4.1C61.5,53.6,56.5,53.1,49.2,54.4z
		 M25.8,69.2c-0.4,0.1-0.5,0-0.7-0.1c-0.4-0.3-0.4-0.4-0.3-0.6c0.2-1.1,2.2-3,6.7-5.2C29.3,66.5,27.2,68.8,25.8,69.2z M38.5,34
		c0.1-0.2,0.2-0.4,0.9-0.4c0.6,0,0.9,0.3,1.1,0.4c0.8,1.2,0.7,4.1-0.3,8.1C38.7,38.7,37.8,35.4,38.5,34z M41,56.4
		c-0.9,0.3-1.8,0.5-2.7,0.8c0.3-0.6,0.5-1.3,0.8-1.8c0.6-1.7,1.3-3.4,2-5.2c0.7,1,1.3,1.9,2,2.5c0.8,0.9,1.6,1.7,2.4,2.5
		C44,55.6,42.5,55.9,41,56.4z M59.9,58c-0.6,0.7-1.4,1-2.4,1c-1.3,0-3-0.6-4.8-1.9C57.8,56.4,60.8,56.9,59.9,58z"/>
	<path d="M74.5,21.6L54.9,2c-1.3-1.3-3-2-4.7-2H15.1l0,0c-1.8,0-3.4,0.7-4.7,2c-1.3,1.3-2,2.9-2,4.7v71.8c0,3.7,3,6.6,6.6,6.6h54.8
		c3.7,0,6.6-3,6.6-6.6V26.2C76.5,24.5,75.8,22.8,74.5,21.6z M70.8,23.2H56.3c-1.6,0-3-1.3-3-3V5.8L70.8,23.2z M69.9,81.2H15.1
		c-1.5,0-2.8-1.3-2.8-2.8V6.6c0-0.7,0.3-1.4,0.8-2c0.5-0.5,1.3-0.8,2-0.8l0,0h34.4v16.4c0,3.8,3,6.8,6.8,6.8h16.4v51.4
		C72.7,79.9,71.4,81.2,69.9,81.2z"/>
</g>
</svg>
