<?xml version="1.0" encoding="utf-8"?>
<!-- Generator: Adobe Illustrator 16.0.0, SVG Export Plug-In . SVG Version: 6.00 Build 0)  -->
<!DOCTYPE svg PUBLIC "-//W3C//DTD SVG 1.1//EN" "http://www.w3.org/Graphics/SVG/1.1/DTD/svg11.dtd">
<svg version="1.1" id="Layer_1" xmlns="http://www.w3.org/2000/svg" xmlns:xlink="http://www.w3.org/1999/xlink" x="0px" y="0px"
	 width="85px" height="85px" viewBox="0 0 85 85" enable-background="new 0 0 85 85" xml:space="preserve">
<path fill="#00529B" d="M42.5,0.003C19.028,0.003,0,19.031,0,42.503s19.028,42.5,42.5,42.5c23.473,0,42.5-19.026,42.5-42.5
	C85,19.03,65.973,0.003,42.5,0.003z M42.288,66.27c0,0-1.972,1.312-3.32,1.306c-0.12,0.055-0.191,0.087-0.191,0.087l0.003-0.087
	c-0.283-0.013-0.568-0.054-0.855-0.125l-0.426-0.105c-2.354-0.584-3.6-2.918-3.014-5.271l3.277-13.211l1.479-5.967
	c1.376-5.54-4.363,1.178-5.54-1.374c-0.777-1.687,4.464-5.227,8.293-7.896c0,0,1.97-1.309,3.318-1.304
	c0.121-0.056,0.192-0.087,0.192-0.087L45.5,32.322c0.285,0.013,0.57,0.053,0.857,0.124l0.426,0.106
	c2.354,0.584,3.787,2.965,3.203,5.318l-3.275,13.212l-1.482,5.967c-1.373,5.54,4.271-1.204,5.446,1.352
	C51.452,60.085,46.116,63.602,42.288,66.27z M50.594,24.976c-0.818,3.295-4.152,5.304-7.445,4.486
	c-3.296-0.818-5.306-4.151-4.487-7.447c0.818-3.296,4.152-5.304,7.446-4.486C49.402,18.346,51.411,21.68,50.594,24.976z"/>
</svg>
