<?xml version="1.0" encoding="utf-8"?>
<!-- Generator: Adobe Illustrator 26.2.1, SVG Export Plug-In . SVG Version: 6.00 Build 0)  -->
<svg version="1.1" id="圖層_1" xmlns="http://www.w3.org/2000/svg" xmlns:xlink="http://www.w3.org/1999/xlink" x="0px" y="0px"
	 viewBox="0 0 404.1 362.1" style="enable-background:new 0 0 404.1 362.1;" xml:space="preserve">
<style type="text/css">
	.st0{fill:#1D90AC;}
	.st1{fill:#8D4AAD;}
	.st2{fill:#F9FBFC;}
	.st3{fill:#CAE8F2;}
	.st4{fill:#E4DCEA;}
	.st5{fill:#FBD15B;}
	.st6{fill:#BC4991;}
	.st7{fill:#FFFFFF;}
	.st8{fill:#E0E1E2;}
	.st9{fill:#D1D3D4;}
	.st10{fill:#EF5F7A;}
	.st11{fill:#EED7BA;}
	.st12{fill:#39263D;}
	.st13{fill:#4A4157;}
	.st14{fill:#F8A971;}
	.st15{fill:#D0DADD;}
	.st16{fill:#1D6591;}
	.st17{fill:#F79663;}
	.st18{fill:#DFE7EA;}
</style>
<g>
	<g id="圖層_3">
		<polygon class="st0" points="364.5,71.9 352.9,71.9 351.9,80 365.5,80 		"/>
		<rect x="352.9" y="65.7" class="st0" width="11.5" height="6.2"/>
		<rect x="351.5" y="48.8" class="st0" width="14.4" height="16.9"/>
		<path class="st0" d="M320.2,31l-0.1-0.6l-1-10.1l-0.1-0.6l-1-10.7h-8.8l-0.6,5.9l0,0l-1,10.4v0.3l-1.2,12.5v0.2l-1.1,11.2H322
			L320.2,31z M307.6,47.9l0.8-8.4l0.2-2.5l1-10.5l0.2-2.2l0.8-8.3l0.2-2.3l0.3-2.8h5.5v0.3l0.7,7.5l0.1,1.3v0.2l0.1,1.2l0.8,8.2
			l0.1,1.3v0.1l0.1,1.2l1.2,13l0.1,1.4l0.1,1.3L307.6,47.9z"/>
		<path class="st0" d="M366.5,276.9v-17.5l0.1,0l-0.1-0.1v-16l0.1-0.1l-0.1-0.1v-16l0.1-0.1l-0.1-0.1v-16l0.1-0.1l-0.1-0.1v-16
			l0.1-0.1l-0.1-0.1V179l0.1-0.1l-0.1-0.1v-16l0.1-0.1l-0.1-0.1v-16l0.1-0.1l-0.1-0.1v-16l0.1-0.1l-0.1-0.1v-16l0.1-0.1l-0.1-0.1
			v-16l0.1-0.1l-0.1-0.1V79.1h-15.5v11.3l-0.2,0.1l0.2,0.1v15.9l-0.2,0.1l0.2,0.1v15.9l-0.2,0.1l0.2,0.1v15.9l-0.2,0.1l0.2,0.1v15.9
			l-0.2,0.1l0.2,0.1v15.9l-0.2,0.1l0.2,0.1v15.9l-0.2,0.1l0.2,0.1V203l-0.2,0.1l0.2,0.1V219l-0.2,0.1l0.2,0.1v15.9l-0.2,0.1l0.2,0.1
			v15.9l-0.2,0.1l0.2,0.1v25.5h-8.3v14.4h32.2v-14.4H366.5z M364.6,258.1l-10.5-6.8l10.5-6.8V258.1z M364.6,242l-10.5-6.8l10.5-6.8
			V242z M364.6,225.9l-10.5-6.8l10.5-6.8V225.9z M364.6,209.9l-10.5-6.8l10.5-6.8V209.9z M364.6,193.8l-10.5-6.8l10.5-6.8
			L364.6,193.8z M364.6,177.7l-10.5-6.8l10.5-6.8V177.7z M364.6,161.6l-10.5-6.8l10.5-6.8V161.6z M364.6,145.5l-10.5-6.8l10.5-6.8
			V145.5z M364.6,129.4l-10.5-6.8l10.5-6.8V129.4z M364.6,113.4l-10.5-6.8l10.5-6.8V113.4z M364.6,97.3l-10.5-6.8l10.5-6.8V97.3z
			 M352.8,80.9h11.9v1.2l-0.3-0.4l-11.6,7.5V80.9z M352.8,91.8l10.4,6.8l-10.4,6.8V91.8z M352.8,107.9l10.4,6.8l-10.4,6.8V107.9z
			 M352.8,123.9l10.4,6.8l-10.4,6.8V123.9z M352.8,140l10.4,6.8l-10.4,6.8V140z M352.8,156.1l10.4,6.8l-10.4,6.8V156.1z
			 M352.8,172.2l10.4,6.8l-10.4,6.8V172.2z M352.8,188.3l10.4,6.7l-10.4,6.8V188.3z M352.8,204.4l10.4,6.8l-10.4,6.8V204.4z
			 M352.8,220.4l10.4,6.8l-10.4,6.8V220.4z M352.8,236.5l10.4,6.8l-10.4,6.7V236.5z M363.2,259.4l-10.4,6.8v-13.5L363.2,259.4z
			 M352.8,267.9l0.2,0.3l11.7-7.6v16.3h-11.9V267.9z"/>
		<path class="st0" d="M297.4,35.2H44.6l-7.5,15.5h270.5L297.4,35.2z M304.3,48.9h-7.8l0.4-0.3l-9-11.5h8.5L304.3,48.9z M61.6,48.9
			H44.8l8.4-10.7L61.6,48.9z M54.6,37.1h16.7L63,47.7L54.6,37.1z M72.6,38.2L81,48.9H64.3L72.6,38.2z M74,37.1h16.7l-8.3,10.6
			L74,37.1z M92,38.2l8.4,10.7H83.7L92,38.2z M93.4,37.1H110l-8.3,10.6L93.4,37.1z M111.4,38.2l8.4,10.7h-16.6L111.4,38.2z
			 M112.8,37.1h16.6l-8.3,10.6L112.8,37.1z M130.8,38.2l8.4,10.7h-16.6L130.8,38.2z M132.2,37.1H149l-8.3,10.6L132.2,37.1z
			 M150.2,38.2l8.4,10.7h-16.5L150.2,38.2z M151.6,37.1h16.6l-8.3,10.6L151.6,37.1z M169.6,38.2l8.4,10.7h-16.5L169.6,38.2z
			 M171,37.1h16.6l-8,10.6L171,37.1z M189,38.2l8.4,10.7H181L189,38.2z M190.4,37.1h16.6l-8.3,10.6L190.4,37.1z M208.4,38.2
			l8.4,10.7h-16.4L208.4,38.2z M209.8,37.1h17l-8.3,10.6L209.8,37.1z M227.8,38.2l8.4,10.7h-16.4L227.8,38.2z M229.2,37.1h16.6
			l-8.3,10.6L229.2,37.1z M247.2,38.2l8.8,10.7h-16.7L247.2,38.2z M248.6,37.1h16.6l-8.3,10.6L248.6,37.1z M266.6,38.2l8.4,10.7
			h-16.3L266.6,38.2z M268,37.1h16.6l-8.3,10.6L268,37.1z M286,38.2l8.4,10.7h-16.2L286,38.2z M45.8,37h6l-9,11.5l0.4,0.3h-3.1
			L45.8,37z"/>
		<path class="st0" d="M316.3,9.7h-5.1V2.6c0-1.4,1.1-2.6,2.5-2.6c0,0,0,0,0,0l0,0c1.4,0,2.5,1.1,2.5,2.5V9.7z"/>
		<rect x="306.8" y="46.3" class="st0" width="97" height="4.2"/>
		<rect x="373.8" y="39.6" class="st0" width="20.8" height="21.2"/>
		<rect x="351.1" y="39.3" class="st0" width="14.4" height="7.5"/>
		
			<rect x="163.7" y="18.5" transform="matrix(0.976 -0.2176 0.2176 0.976 1.5978 52.3326)" class="st0" width="149.3" height="0.7"/>
		
			<rect x="229.7" y="19.5" transform="matrix(0.9278 -0.373 0.373 0.9278 12.2129 102.8328)" class="st0" width="84.3" height="0.7"/>
		<polygon class="st0" points="386.5,40.8 316.2,2.9 316.5,2.3 386.8,40.1 		"/>
		<polygon class="st0" points="362.1,40 315.8,4.8 316.3,4.2 362.6,39.4 		"/>
		<path class="st0" d="M128.6,67.7c-31.8,0-89.5-17.3-90.1-17.5l0.2-0.7C39.3,49.7,96.9,67,128.6,67c32.2,0,78.9-5.9,102.1-16.8
			l0.3,0.7C207.8,61.8,160.9,67.7,128.6,67.7z"/>
		<rect x="233" y="49.7" class="st0" width="11.5" height="4.2"/>
		<path class="st0" d="M241.5,108.4h-5.5l-0.1-5.9L235.3,53h6.9L241.5,108.4z M236.8,107.7h4l0.7-54H236L236.8,107.7z"/>
		<polygon class="st0" points="241.2,102.5 241.2,108 236.4,108 236.3,102.5 		"/>
		<path class="st1" d="M238.5,112.4c-1.3,0-2.3-1-2.3-2.3v0c0-0.2,0.1-0.4,0.3-0.4s0.4,0.1,0.4,0.3c0,0,0,0.1,0,0.1
			c0,0.9,0.7,1.6,1.6,1.6c0.9,0,1.6-0.7,1.6-1.6s-0.7-1.6-1.6-1.6c-0.2,0-0.3-0.2-0.3-0.3c0-0.2,0.2-0.3,0.3-0.3
			c1.3,0.1,2.2,1.2,2.2,2.5C240.6,111.4,239.6,112.4,238.5,112.4z"/>
		<polygon class="st0" points="319.2,19.8 317.2,18.6 310.9,14.9 316.5,11.2 317.6,10.4 317,9.5 315,10.9 310.8,13.7 308.8,15 
			308.8,15 308.8,15 310.6,16 317.4,20 317.5,20.1 317.4,20.1 309.8,24.4 307.9,25.5 307.6,25.6 307.8,25.7 309.6,26.6 318.4,30.8 
			318.5,30.9 318.4,30.9 308.6,37 306.6,38.3 306.5,38.4 306.6,38.5 308.4,39.5 319.9,46.5 320.6,47 321.2,46 319.7,45.2 
			308.6,38.3 318.5,32.1 320.2,31 320.2,30.5 318.3,29.6 310,25.5 317.5,21.3 319.2,20.4 		"/>
		<path class="st0" d="M73.1,126.2h256.1c4,0,7.2,3.2,7.2,7.2v154.2c0,4-3.2,7.2-7.2,7.2H73.1c-4,0-7.2-3.2-7.2-7.2V133.4
			C65.9,129.5,69.1,126.2,73.1,126.2z"/>
		<path class="st0" d="M326.2,295.5h-250c-6.1,0-11-4.9-11-11V136.5c0-6.1,4.9-11,11-11h250c6.1,0,11,4.9,11,11v148.1
			C337.1,290.6,332.2,295.5,326.2,295.5z M76.2,127c-5.3,0-9.5,4.3-9.5,9.5v148c0,5.3,4.3,9.5,9.5,9.5h250c5.3,0,9.5-4.3,9.5-9.5
			V136.5c0-5.3-4.3-9.5-9.5-9.5L76.2,127z"/>
		<rect x="73.3" y="146.8" class="st2" width="255.7" height="140.6"/>
		<rect x="84.2" y="156.7" class="st3" width="60.2" height="119.8"/>
		<rect x="90.8" y="247.5" class="st2" width="23.6" height="23.6"/>
		<rect x="229.6" y="156.7" class="st4" width="71.3" height="8.9"/>
		<rect x="156.9" y="156.7" class="st3" width="60.2" height="50.1"/>
		<circle class="st2" cx="165.4" cy="165.1" r="2.9"/>
		<circle class="st2" cx="176.2" cy="165.1" r="2.9"/>
		<circle class="st2" cx="187" cy="165.1" r="2.9"/>
		<circle class="st2" cx="197.8" cy="165.1" r="2.9"/>
		<circle class="st2" cx="208.6" cy="165.1" r="2.9"/>
		<circle class="st2" cx="165.4" cy="187.4" r="2.9"/>
		<circle class="st2" cx="176.2" cy="187.4" r="2.9"/>
		<circle class="st2" cx="187" cy="187.4" r="2.9"/>
		<circle class="st2" cx="197.8" cy="187.4" r="2.9"/>
		<circle class="st2" cx="208.6" cy="187.4" r="2.9"/>
		<circle class="st2" cx="165.4" cy="176.2" r="2.9"/>
		<circle class="st2" cx="176.2" cy="176.2" r="2.9"/>
		<circle class="st2" cx="187" cy="176.2" r="2.9"/>
		<circle class="st2" cx="197.8" cy="176.2" r="2.9"/>
		<circle class="st2" cx="208.6" cy="176.2" r="2.9"/>
		<circle class="st2" cx="165.4" cy="198.5" r="2.9"/>
		<circle class="st2" cx="176.2" cy="198.5" r="2.9"/>
		<circle class="st2" cx="187" cy="198.5" r="2.9"/>
		<circle class="st2" cx="197.8" cy="198.5" r="2.9"/>
		<circle class="st2" cx="208.6" cy="198.5" r="2.9"/>
		<rect x="229.6" y="175.3" class="st4" width="88.5" height="3.9"/>
		<rect x="229.6" y="193.8" class="st4" width="88.5" height="3.9"/>
		<rect x="229.6" y="184.5" class="st4" width="88.5" height="3.9"/>
		<rect x="229.6" y="203" class="st4" width="88.5" height="3.9"/>
		<rect x="229.6" y="226.4" class="st4" width="71.3" height="8.9"/>
		<rect x="156.9" y="226.4" class="st3" width="60.2" height="50.1"/>
		<rect x="229.6" y="244.9" class="st4" width="88.5" height="3.9"/>
		<rect x="229.6" y="263.4" class="st4" width="88.5" height="3.9"/>
		<rect x="229.6" y="254.2" class="st4" width="88.5" height="3.9"/>
		<rect x="229.6" y="272.6" class="st4" width="88.5" height="3.9"/>
		<circle class="st2" cx="165.4" cy="234.7" r="2.9"/>
		<circle class="st2" cx="176.2" cy="234.7" r="2.9"/>
		<circle class="st2" cx="187" cy="234.7" r="2.9"/>
		<circle class="st2" cx="197.8" cy="234.7" r="2.9"/>
		<circle class="st2" cx="208.6" cy="234.7" r="2.9"/>
		<path class="st2" d="M168.4,257c0,1.6-1.3,2.9-3,2.9s-2.9-1.3-2.9-3c0-1.6,1.3-2.9,3-2.9c0,0,0,0,0,0
			C167,254,168.4,255.4,168.4,257C168.4,257,168.4,257,168.4,257z"/>
		<path class="st2" d="M179.2,257c0,1.6-1.3,3-2.9,3s-2.9-1.3-2.9-3c0-1.6,1.3-2.9,2.9-2.9l0,0C177.8,254.1,179.2,255.4,179.2,257z"
			/>
		<path class="st2" d="M190,257c0,1.6-1.3,2.9-2.9,2.9s-2.9-1.3-2.9-2.9c0-1.6,1.3-2.9,2.9-2.9C188.7,254,190,255.4,190,257
			C190,257,190,257,190,257z"/>
		<path class="st2" d="M200.8,257c0,1.6-1.3,2.9-3,2.9s-2.9-1.3-2.9-3c0-1.6,1.3-2.9,3-2.9c0,0,0,0,0,0
			C199.5,254,200.8,255.4,200.8,257C200.8,257,200.8,257,200.8,257z"/>
		<path class="st2" d="M211.6,257c0,1.6-1.3,2.9-3,2.9c-1.6,0-2.9-1.3-2.9-3c0-1.6,1.3-2.9,2.9-2.9C210.2,254,211.6,255.3,211.6,257
			C211.6,257,211.6,257,211.6,257z"/>
		<circle class="st2" cx="165.4" cy="245.9" r="2.9"/>
		<circle class="st2" cx="176.2" cy="245.9" r="2.9"/>
		<circle class="st2" cx="187" cy="245.9" r="2.9"/>
		<circle class="st2" cx="197.8" cy="245.9" r="2.9"/>
		<circle class="st2" cx="208.6" cy="245.9" r="2.9"/>
		<circle class="st2" cx="165.4" cy="268.1" r="2.9"/>
		<circle class="st2" cx="176.2" cy="268.1" r="2.9"/>
		<circle class="st2" cx="187" cy="268.1" r="2.9"/>
		<circle class="st2" cx="197.8" cy="268.1" r="2.9"/>
		<circle class="st2" cx="208.6" cy="268.1" r="2.9"/>
		<path class="st5" d="M297.9,136.3c0,1.8-1.5,3.3-3.3,3.3c-1.8,0-3.3-1.5-3.3-3.3s1.5-3.3,3.3-3.3S297.9,134.5,297.9,136.3
			L297.9,136.3z"/>
		<path class="st6" d="M313.4,136.3c0,1.8-1.5,3.3-3.3,3.3c-1.8,0-3.3-1.5-3.3-3.3s1.5-3.3,3.3-3.3S313.4,134.5,313.4,136.3
			L313.4,136.3z"/>
		<path class="st7" d="M328.9,136.3c0,1.8-1.5,3.3-3.3,3.3c-1.8,0-3.3-1.5-3.3-3.3s1.5-3.3,3.3-3.3S328.9,134.5,328.9,136.3
			L328.9,136.3z"/>
		<circle class="st2" cx="103.6" cy="180.6" r="15"/>
		<polygon class="st2" points="119.6,196.5 99.8,230.7 139.3,230.7 		"/>
		<path class="st8" d="M78.3,294.8c-0.5-2.3-1.2-4.7-1.9-7.5c0.4-0.3,0.8-0.6,1.2-0.9l-2.8-11.8c-1.7,0.6-3.5,1.1-5.3,1.3
			c1.8-0.3,3.6-0.7,5.3-1.3c-0.6-6,1.2-15.4,1.2-15.4l0,0c-1.2,0.2-2.1-0.1-2.5-1.2c0.4,1,1.5,1.5,2.5,1.2c2-0.5,4-1.2,5.9-2.1
			c3.6-1.5,11.5-7.5,11.5-7.5c5.7-2.4,4.4-6.4,4-6.9c-0.8-0.8-3,3-3,3s0.6-2.1-0.1-2.3s-0.5,1.5-2.2,3.5s-12.6,4.7-15.6,4.9
			c-0.6,0-1.3,0-1.9-0.2c-0.7-0.2-1.3-0.6-1.9-1c-0.4-0.2-0.7-0.5-1-0.8c0,0,0-0.1,0-0.1l0.5-1.4c0.4,0,0.8,0,1.2-0.1
			c0.3-0.1,0.6-0.5,1-2.1c0.2-1.2,0.3-2.5,0.2-3.8h0.2c0.1,0,0.3,0,0.4-0.1c0.6-0.4,0.1-1.6,0.1-1.6s-1.2-5.4-6.3-4.8
			c-2.3,0.3-2.7,2.2-3.1,4v44.6c0,2.3,0.8,4.5,2.2,6.2c0-0.5,0-0.9,0-1.4h0.5H69c0.8,1.3,1.5,2.7,2.1,4.1c1.5,0.9,3.2,1.3,5,1.3
			L78.3,294.8z"/>
		<g>
			<path class="st9" d="M28.9,318.7h323.4c1.8,0,3.2-1.5,3.2-3.2l0,0c0-1.8-1.4-3.2-3.2-3.2H28.9c-1.8,0-3.2,1.4-3.2,3.2l0,0
				C25.6,317.3,27.1,318.7,28.9,318.7z"/>
			<path class="st9" d="M213,316.3h76.7c0.8,0,1.5,0.7,1.5,1.5v1.9c0,0.8-0.7,1.5-1.5,1.5H213c-0.8,0-1.5-0.7-1.5-1.5v-1.9
				C211.6,317,212.2,316.3,213,316.3z"/>
		</g>
		<path class="st8" d="M336.4,284.6v-12.8c-2-6.3-5.1-14.1-5.1-14.1c2.4-3.8,4.2-8,5.1-12.4v-11.5c-0.5-0.4-1.1,1.2-1.1,1.2
			s-0.5-2-0.9-1.9c-0.8,0.3-0.1,4.5-0.1,4.7c-1.7,6.1-5.5,11.3-10.8,14.8c-0.1-0.1-1.1-1.7-1.1-1.8c0-1.6,0.2-7-2.2-8.5
			c-2.6-1.6-7.7-0.4-9.5-0.2s0.9,2.5,2.7,3.2c-0.2,1.4-0.2,2.9,0,4.3c0.2,0.8,0.7,2.5,1.5,3c0.9,0.4,2,0.4,2.9,0.1
			c0,0,0.6,0.1,1.6,2.2c-8.1,4.1-23.9,7.6-24.1,7.7c0,0-2.7-1.6-3.3-1.2s0.2,0.9,1,1.4c0,0-4.1,0.8-4.2,1.9s0.4,2,2.4,1.9
			c1.9,0,3.7-0.6,5.2-1.7l19.4,1.3l3.8,18.1c0,0-1.8,3.6-2.3,10.5h8.6c0.8-2.5,1.8-4.9,3.1-7.2c0,0-0.2,3.1,0,6.7
			C333.4,293,336.4,289.1,336.4,284.6z"/>
		<path class="st10" d="M337.5,235.1c0.2,1.3,0.3,9.5-5.6,18.9c0,0,6.9,17.4,6.8,21.3l-0.6,0.4c-2.1,1.5-9.7,6.3-17.8,5l-3.8-18.1
			l-20,1.9l-1.1-2.3c0.2-0.1,16.6-6.8,24.6-10.9c1.2-0.6,2.4-1.3,3.5-2l0.5-0.4c5.3-3.4,9.1-8.7,10.8-14.8
			C334.8,234,337.2,233.7,337.5,235.1z"/>
		<path class="st11" d="M292.1,260.9c0.6-0.4,3.3,1.2,3.3,1.2l1.1,2.3c-1.5,1.1-3.3,1.6-5.2,1.7c-2,0.1-2.6-0.8-2.4-1.9
			s4.2-1.9,4.2-1.9C292.3,261.8,291.5,261.3,292.1,260.9z"/>
		<path class="st11" d="M334.9,229.3c0.4-0.1,0.9,1.9,0.9,1.9s0.6-1.8,1.1-1.2s2.1,3.4,0.5,5c-0.2-1.3-2.6-1-2.6-1
			C334.8,233.8,334.1,229.6,334.9,229.3z"/>
		<path class="st11" d="M318.9,243.7c1.1,0.4,0.9,1.9,1.2,2.4s0.1,1.5,2.8,1c0,0.1,1,1.6,1.1,1.8l-0.5,0.4c-1.1,0.7-2.3,1.4-3.5,2
			c-0.9-2-1.6-2.1-1.6-2.1s-1.8,0.6-2.9-0.1c-0.8-0.8-1.4-1.9-1.5-3c-0.2-1.4-0.2-2.9,0-4.3c0.1,0,0.2,0.1,0.4,0.1
			c1.9,0.5,2.5,2.9,2.5,3.8h0.5C317.4,245.6,316.5,242.4,318.9,243.7z"/>
		<path class="st12" d="M322.3,312.2v4c-0.6,0.1-9.4,0-9.4,0l5.4-4.1L322.3,312.2z"/>
		<path class="st12" d="M341.7,311.5c0,0-4.3,5-8,4.8c-0.1,0.1,3.1-5.1,3.2-5.9l3.2-2L341.7,311.5z"/>
		<path class="st13" d="M320.3,280.6c8,1.3,15.6-3.5,17.8-5c1.8,4.6,0.3,10.8-0.5,15.5c-1.2,7.5,2.8,17.7,2.8,17.7l-3.4,1.6
			c0-0.1,0-0.2,0-0.2s-4.8-7.3-6.3-12.4s-1-13.8-1-13.8c-5.3,8.6-7.3,28.3-7.3,28.3l-4-0.1c0,0-0.6-9.9-0.5-18.4
			S320.3,280.6,320.3,280.6z"/>
		<path class="st13" d="M319.4,246.1c-0.3-0.5,0.2-2.3-0.7-2.5c-1.5-0.7-1.3,1.9-1.3,1.9h-0.5c-0.1-0.5-0.2-1-0.3-1.5
			c-0.2-0.7-0.6-1.3-1.1-1.7c-0.5-0.5-1.4-0.5-1.7-1.3c-0.1-0.8,0.2-1.6,0.8-2.1c0.6-0.6,1.5-1,2.3-1c1.3-0.3,2.7,0,3.9,0.7
			c2.5,1.5,2.2,6.8,2.2,8.5C320.2,247.6,319.6,246.6,319.4,246.1z"/>
		<path class="st5" d="M313.2,242c0-2.8,2.3-5,5.1-5c2.7,0,4.8,2.1,5,4.7l0,0L313.2,242z"/>
		<polygon class="st5" points="313.2,242 323.3,241.7 324.4,241.7 324.5,242.5 323.3,242.6 322.5,242.6 318.7,242.7 318.3,242.7 
			313.4,242.8 313.3,242.8 312.1,242.9 312.1,242 		"/>
		<path class="st11" d="M71.1,241.2c0.2,1.3,0.1,2.6-0.2,3.9c-0.5,1.7-0.9,2-1.2,2.1c-0.5,0.1-1,0.1-1.4,0.1l-1,2.6l-3.4-3.3
			l2.5-6.7L71.1,241.2z"/>
		<path class="st14" d="M75,312.7c0.3,1.9,0.5,3.2,0.5,3.2h8.4l-3.4-2.7C80.5,313.2,78.4,314.4,75,312.7L75,312.7z"/>
		<path class="st14" d="M58.8,313.5c0,0-2.2,1-5-0.8c-0.2,0.3-0.9,2.4-1,2.6s0.1,0.3,0.3,0.4h0.1c0.6,0.2,6.4,0.4,7.7,0.4h0.6h0.3
			c0.1,0,0.2,0,0.3,0c0.1,0,0-0.1,0-0.1c-0.1-0.1-0.2-0.2-0.3-0.3c-0.3-0.2-0.6-0.5-0.9-0.7l-1-0.7L58.8,313.5z"/>
		<path class="st10" d="M72.8,258.2c-1.4,0.2-2.4-0.1-2.9-1.2c-1.1-2.6-1.1-5,1.2-6.4l0,0c-0.8-0.2-1.5-0.5-2.2-1
			c-0.5-0.3-0.9-0.6-1.3-1c0.3,0.8,0.5,1.7,0.6,2.6c-0.1,0.9-1.3,0.8-1.6,1.5s0.7,1.7,0.3,2.8s-1.2,1.9-5.1,2.2
			c-2.5,0-4.9-1.4-6-3.7c-1.2,1.9-1.9,5.1-2.3,8.4c-0.5,4-0.5,7.9-0.6,9.1c3,6.7,18.5,2,18.5,2C70.7,267.6,72.8,258.2,72.8,258.2
			L72.8,258.2z"/>
		<path class="st11" d="M64.6,288.1c0,0,2.2,2.9,5.7,11.1c2.1,4.9,4.1,10.1,4.7,13.5l0,0c3.4,1.8,5.5,0.6,5.5,0.5l-1.7-1.4
			c0,0,0.1-7.8-5.7-25.8C70.4,287.2,67.5,287.9,64.6,288.1z"/>
		<path class="st11" d="M53.9,312.7L53.9,312.7c2.8,1.9,5,0.8,5,0.8l-1.2-0.8c0,0,5.9-5.3,6-24.5l0,0c-2.9,0-5.7-0.5-8.3-1.7
			C55.4,286.4,59.2,302.9,53.9,312.7z"/>
		<path class="st11" d="M73.3,250.8c-0.7,0.1-1.5,0-2.2-0.2l0,0c-2.3,1.3-2.7,3.6-1.2,6.4c0.6,1,1.5,1.4,2.9,1.2
			c2.3-0.5,4.6-1.2,6.8-2.1c4.1-1.5,13.2-7.5,13.2-7.5c6.6-2.4,5.1-6.4,4.6-6.9c-0.9-0.8-3.4,3-3.4,3s0.7-2.1-0.1-2.3
			s-0.6,1.5-2.5,3.6S76.7,250.6,73.3,250.8z"/>
		<path class="st13" d="M71.4,241.3c0.2,0,0.3,0,0.5-0.1c0.7-0.4,0.1-1.6,0.1-1.6c-0.9-3.2-4-5.3-7.3-4.8c-4.4,0.4-2.8,5.6-5,6.8
			s-3.4,2.7-2.1,5.7c-0.6,0.6-1.2,1.2-1.7,1.9c-0.7,0.8-1,1.9-0.9,3c0.2,0.7,0.5,1.4,0.8,2c1.1,2.3,3.5,3.7,6,3.7
			c3.9-0.3,4.8-1.1,5.1-2.2s-0.6-2-0.3-2.8s1.5-0.7,1.6-1.5c0.2-1.4-0.9-2.8-0.3-4.2c0.2-0.4,0.4-0.7,0.7-1c0.7-0.9,0.3-1.7,0.5-2.7
			c0.1-0.6,0.4-1.1,0.7-1.6C70.2,241.2,70.7,241.3,71.4,241.3z"/>
		<path class="st0" d="M71.4,273.6c0,0-11.7,4.2-18.5-2c-0.2,2.4,1.2,15.1,1.2,15.1c3.2,1.3,6.7,1.8,10.1,1.5
			c8.3-0.6,9-2.4,10.4-2.9L71.4,273.6z"/>
		<path class="st5" d="M61.2,237.9c0.1-2.8,2.5-5,5.3-4.8c2.6,0.1,4.7,2.2,4.8,4.8l0,0H61.2z"/>
		<polygon class="st5" points="61.2,237.9 71.3,237.9 72.5,237.9 72.5,238.8 71.3,238.8 70.5,238.8 66.7,238.8 66.3,238.8 
			61.4,238.8 61.3,238.8 60.1,238.8 60.1,237.9 		"/>
		<path class="st8" d="M277.7,219.1l-3.4-2.9h0c0,0,4.5-8.3,4.6-12.3s-9.4-5.7-9.4-5.7c0.1-5.3,0.5-13.3,0.5-13.3
			c1.3,0.3,3,0.8,4.7,1.2c0.1-0.1,0.1-0.2,0.2-0.3c2.1,0.5,4.2,0.6,6.3,0.2c0.6-0.2,1.2-0.5,1.6-0.9l5.6,1l1.8-10.3
			c2.2-0.6,3.3-2.1,3.1-2.5s-1.5,0.1-2.7,0.4l6.7-36.9L238,126.4l-8.9,49.3l14.2,2.6c-0.5-0.1-1-0.2-1.5-0.3c0,0-0.1,6.4,9.2,5
			l-0.1-0.1l0.2,0.2c0.9,0,1.9-0.1,2.8-0.3c0,0-2.5,10.6-2.4,18.5h0.6c0,0.1,0,0.2,0,0.4c0.1,1.5,0.5,3,1.4,4.3
			c0.9,1.2,1.4,2.7,1.4,4.2c-0.3,2.3-1.7,3.7-6.9,0.8v0.1c-0.8-0.2-1.7-0.3-2.5-0.2c-0.2,1.9-0.2,3.9-0.1,5.8c0,1.1,0.7,2,1.7,2.4
			h-1.7l-11.7,75.6h56.8l-11.7-75.6H277.7z M275.4,221.5l-2.5,16.4h-21.5l-2.5-16.4H275.4z M254.2,256.5l-2.5-16.4h20.8l-2.5,16.4
			L254.2,256.5z M269.6,258.8l-2.5,16.3h-9.9l-2.5-16.3H269.6z M248.2,215.6v0.1c0,0,7.2,4.4,10.7,2.5c3.3-1.9,3.5-5.2,3.4-11.4l0,0
			c3.7,0.8,10.2,0,10.2,0c-1.3,3.1-2.2,6.4-2.6,9.7h0.3c-0.2,1.1-0.4,2-0.5,2.6h-21.6c0.1-0.1,0.1-0.3,0-0.4
			C247.6,217.7,247.6,216.6,248.2,215.6L248.2,215.6z M246.9,224.4l2.1,13.4h-4.1L246.9,224.4z M244.5,240.1h4.9l2.5,16.3H242
			L244.5,240.1z M241.6,258.8h10.6l2.5,16.3h-15.7L241.6,258.8z M236.2,293.8l2.5-16.3h16.4l2.5,16.3H236.2z M260,293.8l-2.5-16.3
			h9.2l-2.5,16.3H260z M288,293.8h-21.5l2.5-16.3h16.4L288,293.8z M285.1,275.1h-15.7l2.5-16.3h10.7L285.1,275.1z M282.2,256.5h-9.9
			l2.5-16.4h4.9L282.2,256.5z M275.2,237.8l2.1-13.4l2.1,13.4H275.2z"/>
		
			<rect x="228.7" y="126.2" transform="matrix(0.1767 -0.9843 0.9843 0.1767 55.0299 378.4789)" class="st15" width="50.1" height="60.2"/>
		<path class="st2" d="M238.3,136.6c-0.3,1.6-1.8,2.7-3.4,2.4c-1.6-0.3-2.7-1.8-2.4-3.4c0.3-1.6,1.8-2.7,3.4-2.4c0,0,0,0,0,0
			C237.5,133.5,238.6,135,238.3,136.6z"/>
		<path class="st2" d="M249,138.5c-0.3,1.6-1.8,2.7-3.4,2.4c-1.6-0.3-2.7-1.8-2.4-3.4c0.3-1.6,1.8-2.7,3.4-2.4c0,0,0,0,0,0
			C248.2,135.4,249.3,136.9,249,138.5z"/>
		<path class="st2" d="M259.6,140.4c-0.3,1.6-1.8,2.7-3.4,2.4c-1.6-0.3-2.7-1.8-2.4-3.4c0.3-1.6,1.8-2.7,3.4-2.4
			C258.8,137.3,259.9,138.8,259.6,140.4C259.6,140.4,259.6,140.4,259.6,140.4z"/>
		<path class="st2" d="M270.2,142.3c-0.3,1.6-1.8,2.7-3.4,2.4c-1.6-0.3-2.7-1.8-2.4-3.4c0.3-1.6,1.8-2.7,3.4-2.4c0,0,0,0,0,0
			C269.5,139.2,270.5,140.7,270.2,142.3z"/>
		<path class="st2" d="M280.9,144.2c-0.3,1.6-1.8,2.7-3.4,2.4c-1.6-0.3-2.7-1.8-2.4-3.4c0.3-1.6,1.8-2.7,3.4-2.4c0,0,0,0,0,0
			C280.1,141.1,281.2,142.6,280.9,144.2z"/>
		<path class="st2" d="M234.4,158.5c-0.3,1.6-1.8,2.7-3.4,2.4c-1.6-0.3-2.7-1.8-2.4-3.4c0.3-1.6,1.8-2.6,3.4-2.4
			C233.6,155.4,234.7,156.9,234.4,158.5C234.4,158.5,234.4,158.5,234.4,158.5z"/>
		<path class="st2" d="M245,160.4c-0.3,1.6-1.8,2.7-3.4,2.4c-1.6-0.3-2.7-1.8-2.4-3.4c0.3-1.6,1.8-2.7,3.4-2.4c0,0,0,0,0,0
			C244.2,157.3,245.3,158.8,245,160.4z"/>
		<path class="st2" d="M255.7,162.3c-0.3,1.6-1.8,2.7-3.4,2.4c-1.6-0.3-2.7-1.8-2.4-3.4c0.3-1.6,1.8-2.7,3.4-2.4c0,0,0,0,0,0
			C254.9,159.2,256,160.7,255.7,162.3z"/>
		<path class="st2" d="M266.3,164.2c-0.3,1.6-1.8,2.7-3.4,2.4c-1.6-0.3-2.7-1.8-2.4-3.4c0.3-1.6,1.8-2.7,3.4-2.4
			C265.5,161.1,266.6,162.6,266.3,164.2C266.3,164.2,266.3,164.2,266.3,164.2z"/>
		<path class="st2" d="M277,166.2c-0.3,1.6-1.8,2.7-3.4,2.4c-1.6-0.3-2.7-1.8-2.4-3.4c0.3-1.6,1.8-2.7,3.4-2.4c0,0,0,0,0,0
			C276.2,163,277.3,164.6,277,166.2z"/>
		<path class="st2" d="M236.4,147.6c-0.3,1.6-1.8,2.7-3.4,2.4c-1.6-0.3-2.7-1.8-2.4-3.4c0.3-1.6,1.8-2.7,3.4-2.4
			C235.6,144.4,236.7,146,236.4,147.6z"/>
		<path class="st2" d="M247,149.5c-0.3,1.6-1.8,2.7-3.4,2.4c-1.6-0.3-2.7-1.8-2.4-3.4c0.3-1.6,1.8-2.7,3.4-2.4c0,0,0,0,0,0
			C246.2,146.3,247.3,147.9,247,149.5z"/>
		<path class="st2" d="M257.6,151.4c-0.3,1.6-1.8,2.7-3.4,2.4s-2.7-1.8-2.4-3.4c0.3-1.6,1.8-2.7,3.4-2.4
			C256.9,148.2,257.9,149.8,257.6,151.4C257.6,151.4,257.6,151.4,257.6,151.4z"/>
		<path class="st2" d="M268.3,153.3c-0.3,1.6-1.8,2.7-3.4,2.4c-1.6-0.3-2.7-1.8-2.4-3.4c0.3-1.6,1.8-2.7,3.4-2.4
			C267.5,150.2,268.6,151.7,268.3,153.3z"/>
		<path class="st2" d="M278.9,155.2c-0.3,1.6-1.8,2.7-3.4,2.4c-1.6-0.3-2.7-1.8-2.4-3.4c0.3-1.6,1.8-2.7,3.4-2.4c0,0,0,0,0,0
			C278.1,152.1,279.2,153.6,278.9,155.2z"/>
		<path class="st2" d="M232.4,169.5c-0.3,1.6-1.8,2.7-3.4,2.4s-2.7-1.8-2.4-3.4c0.3-1.6,1.8-2.7,3.4-2.4
			C231.7,166.3,232.7,167.9,232.4,169.5C232.4,169.5,232.4,169.5,232.4,169.5z"/>
		<path class="st2" d="M243.1,171.4c-0.3,1.6-1.8,2.7-3.4,2.4c-1.6-0.3-2.7-1.8-2.4-3.4c0.3-1.6,1.8-2.7,3.4-2.4
			C242.3,168.3,243.4,169.8,243.1,171.4z"/>
		<path class="st2" d="M253.7,173.3c-0.3,1.6-1.8,2.7-3.4,2.4c-1.6-0.3-2.7-1.8-2.4-3.4c0.3-1.6,1.8-2.7,3.4-2.4c0,0,0,0,0,0
			C252.9,170.2,254,171.7,253.7,173.3z"/>
		<path class="st2" d="M264.3,175.2c-0.3,1.6-1.8,2.7-3.4,2.4c-1.6-0.3-2.7-1.8-2.4-3.4c0.3-1.6,1.8-2.7,3.4-2.4
			C263.6,172.1,264.6,173.6,264.3,175.2C264.3,175.2,264.3,175.2,264.3,175.2z"/>
		<path class="st2" d="M275,177.1c-0.3,1.6-1.8,2.7-3.4,2.4c-1.6-0.3-2.7-1.8-2.4-3.4c0.3-1.6,1.8-2.7,3.4-2.4
			C274.2,174,275.3,175.5,275,177.1z"/>
		<path class="st12" d="M268.8,219.6H260c0,0,0.3-1.5,0.6-3.2l0,0c0.2-0.4,4-0.2,4-0.2L268.8,219.6z"/>
		<path class="st13" d="M250.3,200.9c-2.5,0.3-5.1,0.3-7.6,0c0,0.2,0,0.5,0,0.7c0.1,1.5,0.5,3,1.4,4.3c0.9,1.2,1.4,2.7,1.4,4.2
			c-0.3,2.3-1.7,3.7-6.9,0.8l0.1,4.7c0,0,7.2,4.4,10.7,2.5s3.5-5.4,3.4-12L250.3,200.9z"/>
		<path class="st11" d="M240.9,177.8c-0.9,1.7-0.6,3.7,0.7,5.1c-9.3,1.5-9.2-5-9.2-5c2.7,0.6,5.5,0.5,8.1-0.1L240.9,177.8z"/>
		<path class="st11" d="M283.9,173.6c0.2,0.5-1.5,2.5-4.6,2.8c0,0-4.2,9.2-7.5,9.9c-2.2,0.3-4.4,0.2-6.5-0.3
			c1.4-1.4,2.1-3.3,1.9-5.3c1,0.4,2.1,0.6,3.2,0.4c2.2-0.5,5.4-5.2,6.3-6.1s3.4-3.4,4-3.1s-1.6,2-1.3,2.3S283.7,173.1,283.9,173.6z"
			/>
		<path class="st11" d="M266,169.2c-0.4,1.8-1.5,6.3-3.8,6.4c-0.9,0-1.8-0.1-2.7-0.4c-0.3,0.4-0.6,0.8-0.9,1.3c-1.7-0.8-4-1.8-4.8-2
			c-0.1,0-0.2,0-0.3-0.1c0.7-1,1.3-2,1.9-3c0.8,0.9,1.8,1.5,3,1.7c1.3,0.1,2.3-0.8,2.3-1.1c0-0.7,0.5-2,1.6-2s0.5,2,0.5,2.1
			s0.8,0,0.8,0C264.2,170.2,265,169.6,266,169.2z"/>
		<path class="st13" d="M248.8,201.1c0,0-0.1,4.9,4,5.8c3.7,0.8,10.2,0,10.2,0c-1.3,3.1-2.2,6.4-2.6,9.7c1.5,0.1,3,0,4.5-0.3
			c0,0,4.5-8.3,4.7-12.3s-9.5-5.7-9.5-5.7L248.8,201.1z"/>
		<path class="st0" d="M257.9,176.2c1.7,0.8,3.5,1.7,4.5,2.2c1.6,0.8,3.2,1.5,4.9,2.1c0.2,2.1-0.5,4.2-1.9,5.8
			c-1.7-0.4-3.4-0.9-4.7-1.2c0,0-0.4,8-0.5,13.3c-7.9,3.8-18,2.9-18,2.9c-0.1-7.8,2.4-18.5,2.4-18.5c-0.9,0.1-1.9,0.2-2.8,0.3
			c-1.5-1.3-1.9-3.6-0.8-5.3c4.6-2,5.8-3.4,7.9-3.7c1.6-0.1,3.2,0,4.8,0.3c0.1,0,0.2,0,0.3,0.1C255.2,175,256.6,175.6,257.9,176.2z"
			/>
		<path class="st12" d="M238.6,211.2c-0.9-0.2-1.8-0.3-2.6-0.2c-0.2,1.9-0.2,3.9-0.1,5.8c0,1.3,1,2.4,2.3,2.5c0.2,0,0.4-0.1,0.5-0.3
			c0-0.1,0-0.2,0-0.3c-0.5-1-0.5-2.1,0.1-3.1L238.6,211.2z"/>
		<path class="st10" d="M265.3,165.7c0.3,0.1,0.6,0.4,0.8,0.7c0.5,0.7,0.6,1.6,0.3,2.4c-0.3,0.7-1.2,0.7-1.8,1.2
			c-0.5,0.6-0.9,1.3-1.1,2c0,0-0.8,0.1-0.8,0s0.6-2.1-0.5-2.1s-1.3,1.4-1.3,2.1c0,0.4-1.4,1.1-2.7,1c-1.2-0.1-2.3-0.5-3.3-1.2
			c0.1-0.3,0.5-1,0.6-1.3c0.8-2,1.4-5.7,4-6.1c0.6-0.1,1.1,0,1.7,0.1c1,0.2,1.9,0.4,2.8,0.8C264.6,165.5,265,165.6,265.3,165.7z"/>
		<path class="st5" d="M256.7,166.6c0.7-2.7,3.4-4.4,6.1-3.7c2.7,0.7,4.4,3.4,3.7,6.1c0,0.1-0.1,0.2-0.1,0.3l0,0L256.7,166.6z"/>
		<polygon class="st5" points="256.7,166.6 266.4,169.3 267.5,169.6 267.3,170.4 266.1,170.1 265.4,169.9 261.7,168.9 261.3,168.8 
			256.6,167.5 256.5,167.5 255.4,167.2 255.6,166.3 		"/>
		<path class="st16" d="M267.3,221.5h-1.4l-2.5,16.4h2.4l2.1-13.4L267.3,221.5z M223.8,312.5l2.5-16.3h22.2l-0.4-2.3h-21.5l2.5-16.3
			h16.4l-0.4-2.3h-15.7l2.5-16.3h10.7l-0.4-2.3h-9.9l2.5-16.4h4.9l-0.4-2.3h-4.1l2.1-13.4l-0.8-5.3h-0.7l-15.4,99.6h2.4l0.6-4h28
			l-0.6,4h1.2l-1-6.3L223.8,312.5z M260.5,256.5h2.3l2.5-16.4H263L260.5,256.5z M254.7,293.8h2.3l2.5-16.3h-2.3L254.7,293.8z
			 M257.6,275.1h2.3l2.5-16.3h-2.3L257.6,275.1z M252.6,307.1l0.8,5.3h0.7l2.5-16.3h-2.4L252.6,307.1z"/>
		<path class="st0" d="M269.3,219.1h-32.7l0.8,5.3l2.1,13.4l0.4,2.3l2.5,16.4l0.4,2.3l2.5,16.3l0.4,2.3l2.5,16.3l0.4,2.3l2.5,16.3
			l1,6.3h2.3l-0.6-4h28l0.6,4h2.4L269.3,219.1z M239.3,221.5h28l0.5,3l2.1,13.4h-28L239.3,221.5z M242.2,240.1h28l2.5,16.4h-28
			L242.2,240.1z M245.1,258.8h28l2.5,16.3h-28L245.1,258.8z M248,277.5h28l2.5,16.3h-28L248,277.5z M253.4,312.5l-0.8-5.3l-1.7-11
			h28l2.5,16.3H253.4z"/>
		<path class="st9" d="M350.9,325.8h30c0.4,0,0.8,0.4,0.8,0.8v2.1c0,0.4-0.4,0.8-0.8,0.8h-30c-0.4,0-0.8-0.4-0.8-0.8v-2.1
			C350.1,326.1,350.4,325.8,350.9,325.8z"/>
		<path class="st17" d="M376.2,324.8h-20.9l1.9-6.3l1.8-5.8l1.6-5.3l1.8-5.8l0.3-0.9c0.5-1.7,2.2-2.6,3.9-2.1c1,0.3,1.8,1.1,2.1,2.1
			l0.3,0.9l1.8,5.8l1.6,5.3l1.8,5.8L376.2,324.8z"/>
		<path class="st17" d="M376.8,327.6h-22c-0.9,0-1.5-0.7-1.5-1.5c0-0.4,0.2-0.8,0.4-1.1l0,0c0.3-0.3,0.7-0.5,1.1-0.5h22
			c0.4,0,0.8,0.2,1.1,0.5l0,0c0.6,0.6,0.6,1.6,0,2.2C377.5,327.5,377.1,327.6,376.8,327.6z"/>
		<polygon class="st2" points="370.8,307.5 360.7,307.5 362.5,301.7 369,301.7 		"/>
		<polygon class="st2" points="374.3,318.5 357.3,318.5 359.1,312.8 372.5,312.8 		"/>
		<path class="st9" d="M0.5,325.8h30c0.4,0,0.8,0.4,0.8,0.8v2.1c0,0.4-0.4,0.8-0.8,0.8h-30c-0.4,0-0.8-0.4-0.8-0.8v-2.1
			C-0.3,326.1,0,325.8,0.5,325.8z"/>
		<path class="st17" d="M25.8,324.8H4.9l1.9-6.3l1.8-5.8l1.6-5.3l1.8-5.8l0.3-0.9c0.5-1.7,2.2-2.6,3.9-2.1c1,0.3,1.8,1.1,2.1,2.1
			l0.3,0.9l1.8,5.8l1.6,5.3l1.8,5.8L25.8,324.8z"/>
		<path class="st17" d="M26.3,327.6h-22c-0.9,0-1.5-0.7-1.5-1.6c0-0.4,0.2-0.8,0.4-1.1l0,0c0.3-0.3,0.7-0.5,1.1-0.5h22
			c0.4,0,0.8,0.2,1.1,0.5l0,0c0.6,0.6,0.6,1.6,0,2.2C27.1,327.5,26.7,327.6,26.3,327.6z"/>
		<polygon class="st2" points="20.4,307.5 10.3,307.5 12.1,301.7 18.6,301.7 		"/>
		<polygon class="st2" points="23.8,318.5 6.8,318.5 8.6,312.8 22,312.8 		"/>
		<path class="st9" d="M192.4,342.1H93.2c-1.3,0-2.4-1.1-2.4-2.4l0,0c0-1.3,1.1-2.4,2.4-2.4h99.2c1.3,0,2.4,1.1,2.4,2.4l0,0
			C194.8,341,193.7,342.1,192.4,342.1z"/>
		<path class="st9" d="M205.5,357.4h39.1c0.6,0,1.1,0.5,1.1,1.1v2.7c0,0.6-0.5,1.1-1.1,1.1h-39.1c-0.6,0-1.1-0.5-1.1-1.1v-2.7
			C204.4,357.9,204.9,357.4,205.5,357.4z"/>
		<rect x="109.3" y="277.6" class="st0" width="3.7" height="61.1"/>
		<rect x="170.7" y="277.6" class="st0" width="3.7" height="61.1"/>
		<path class="st17" d="M100.2,282.1h82.9c1,0,1.9,0.8,1.9,1.9v13.8c0,1-0.8,1.9-1.9,1.9h-82.9c-1,0-1.9-0.8-1.9-1.9V284
			C98.3,283,99.2,282.1,100.2,282.1z"/>
		<path class="st18" d="M117.3,282.1l-12.8,17.6h-4.3c-1,0-1.9-0.8-1.9-1.9l0,0v-1.2l10.6-14.5L117.3,282.1z"/>
		<polygon class="st18" points="134.6,282.1 121.8,299.7 113.3,299.7 126.1,282.1 		"/>
		<polygon class="st18" points="151.8,282.1 139,299.7 130.6,299.7 143.4,282.1 		"/>
		<polygon class="st18" points="169.1,282.1 156.3,299.7 147.9,299.7 160.6,282.1 		"/>
		<path class="st18" d="M185,284L185,284l-11.4,15.7h-8.4l12.8-17.6h5.2C184.2,282.1,185,283,185,284z"/>
		<path class="st17" d="M100.2,302.8h82.9c1,0,1.9,0.8,1.9,1.9v13.8c0,1-0.8,1.9-1.9,1.9h-82.9c-1,0-1.9-0.8-1.9-1.9v-13.8
			C98.3,303.6,99.2,302.8,100.2,302.8z"/>
		<path class="st18" d="M117.3,302.8l-12.8,17.6h-4.3c-1,0-1.9-0.8-1.9-1.9l0,0v-1.2l10.6-14.5H117.3z"/>
		<polygon class="st18" points="134.6,302.8 121.8,320.3 113.3,320.3 126.1,302.8 		"/>
		<polygon class="st18" points="151.8,302.8 139,320.3 130.6,320.3 143.4,302.8 		"/>
		<polygon class="st18" points="169.1,302.8 156.3,320.3 147.9,320.3 160.6,302.8 		"/>
		<path class="st18" d="M185,304.6L185,304.6l-11.4,15.7h-8.4l12.8-17.6h5.2C184.1,302.8,185,303.6,185,304.6z"/>
		<path class="st17" d="M238.5,356.1h-27.2l2.5-8.2l2.3-7.5l2.1-6.9l2.3-7.5l0.4-1.2c0.7-2.1,2.9-3.4,5.1-2.7
			c1.3,0.4,2.3,1.4,2.7,2.7l0.4,1.2l2.3,7.5l2.1,6.9l2.4,7.6L238.5,356.1z"/>
		<path class="st17" d="M239.2,359.8h-28.7c-1.1,0-2-0.9-2-2c0-0.5,0.2-1,0.6-1.4l0,0c0.4-0.4,0.9-0.6,1.4-0.6h28.7
			c0.5,0,1.1,0.2,1.4,0.6l0,0c0.8,0.8,0.8,2.1,0,2.8C240.2,359.6,239.7,359.8,239.2,359.8z"/>
		<polygon class="st2" points="231.5,333.5 218.3,333.5 220.6,326 229.1,326 		"/>
		<polygon class="st2" points="236,348 213.8,348 216.1,340.4 233.6,340.4 		"/>
	</g>
</g>
</svg>
