<?xml version="1.0" encoding="utf-8"?>
<!-- Generator: Adobe Illustrator 27.9.0, SVG Export Plug-In . SVG Version: 6.00 Build 0)  -->
<svg version="1.1" id="圖層_1" xmlns="http://www.w3.org/2000/svg" xmlns:xlink="http://www.w3.org/1999/xlink" x="0px" y="0px"
	 viewBox="0 0 36 36" style="enable-background:new 0 0 36 36;" xml:space="preserve">
<style type="text/css">
	.st0{fill:#FFFFFF;}
</style>
<path class="st0" d="M18,3.3C9.9,3.3,3.3,9.9,3.3,18S9.9,32.7,18,32.7c8.1,0,14.7-6.6,14.7-14.7S26.1,3.3,18,3.3z M8.9,12.8
	C8.9,12.8,8.9,12.8,8.9,12.8c0.3-0.6,1.1-0.8,1.7-0.5c0.6,0.3,0.8,1.1,0.5,1.7c-0.2,0.4-0.6,0.6-1.1,0.6c-0.2,0-0.4-0.1-0.6-0.2
	C8.7,14.1,8.5,13.4,8.9,12.8z M7.5,18c0-0.7,0.6-1.2,1.2-1.2c0.7,0,1.2,0.6,1.2,1.2c0,0.7-0.6,1.2-1.2,1.2C8,19.3,7.5,18.7,7.5,18z
	 M10.6,23.7c-0.2,0.1-0.4,0.2-0.6,0.2c-0.4,0-0.8-0.2-1.1-0.6c-0.3-0.6-0.1-1.3,0.4-1.7c0.6-0.3,1.3-0.1,1.7,0.5
	C11.4,22.6,11.2,23.4,10.6,23.7z M12.7,8.9C12.7,8.9,12.7,8.9,12.7,8.9c0.6-0.3,1.3-0.1,1.7,0.4c0.3,0.6,0.1,1.3-0.4,1.7
	c-0.2,0.1-0.4,0.2-0.6,0.2c-0.4,0-0.8-0.2-1.1-0.6C11.9,10,12.1,9.3,12.7,8.9z M14.4,26.7c-0.2,0.4-0.6,0.6-1.1,0.6
	c-0.2,0-0.4,0-0.6-0.2c-0.6-0.3-0.8-1.1-0.5-1.7c0.3-0.6,1.1-0.8,1.7-0.5C14.6,25.3,14.8,26.1,14.4,26.7z M18,28.5
	c-0.7,0-1.2-0.6-1.2-1.2c0-0.7,0.6-1.2,1.2-1.2c0.7,0,1.2,0.6,1.2,1.2C19.2,28,18.7,28.5,18,28.5z M23.3,27.1
	c-0.2,0.1-0.4,0.2-0.6,0.2c-0.4,0-0.8-0.2-1.1-0.6c-0.3-0.6-0.1-1.3,0.5-1.7c0.6-0.3,1.3-0.1,1.7,0.4C24.1,26,23.9,26.8,23.3,27.1z
	 M27.1,23.3c-0.2,0.4-0.6,0.6-1.1,0.6c-0.2,0-0.4-0.1-0.6-0.2c-0.6-0.3-0.8-1.1-0.5-1.7c0.3-0.6,1.1-0.8,1.7-0.5
	C27.2,21.9,27.4,22.7,27.1,23.3z M26.7,18.6h-6.3c-0.3,1.1-1.2,1.9-2.4,1.9c-1.4,0-2.5-1.1-2.5-2.5c0-1.1,0.8-2.1,1.9-2.4V6.9
	c0-0.3,0.3-0.6,0.6-0.6s0.6,0.3,0.6,0.6v8.7c0.9,0.2,1.5,0.9,1.8,1.8h6.3c0.3,0,0.6,0.3,0.6,0.6C27.3,18.3,27,18.6,26.7,18.6z
	 M18,16.8c-0.7,0-1.2,0.6-1.2,1.2c0,0.7,0.6,1.2,1.2,1.2s1.2-0.6,1.2-1.2C19.2,17.3,18.7,16.8,18,16.8z M30.7,5.2
	c-1.4-1.4-3.1-2.6-4.8-3.5c-2.5-1.2-5.1-1.8-7.9-1.8c-2.8,0-5.4,0.6-7.9,1.8c-1.8,0.9-3.4,2-4.8,3.5c-1.7,1.7-3,3.7-3.9,5.8
	C0.5,13.2,0,15.6,0,18c0,10,8.1,18.1,18,18.1S36,28,36,18c0-2.4-0.5-4.8-1.4-7C33.7,8.9,32.4,6.9,30.7,5.2z M18,34.9
	C8.8,34.9,1.2,27.3,1.2,18c0-2.2,0.4-4.4,1.3-6.5c0.8-2,2.1-3.9,3.6-5.4C7.5,4.7,9,3.6,10.7,2.8C13,1.7,15.4,1.1,18,1.1
	c2.6,0,5,0.6,7.3,1.7c1.7,0.8,3.2,1.9,4.5,3.2c1.6,1.6,2.8,3.4,3.6,5.4c0.9,2.1,1.3,4.2,1.3,6.5C34.8,27.3,27.2,34.9,18,34.9z"/>
</svg>
